<?xml version="1.0" encoding="UTF-8"?> <!-- Generator: Adobe Illustrator 16.0.0, SVG Export Plug-In . SVG Version: 6.00 Build 0) --> <svg xmlns="http://www.w3.org/2000/svg" xmlns:xlink="http://www.w3.org/1999/xlink" version="1.1" id="Layer_1" x="0px" y="0px" width="250px" height="64.855px" viewBox="0 17.572 250 64.855" xml:space="preserve"> <title>ds50669_gamecare_v1</title> <g> <g> <path fill="#FFB80C" d="M193.459,82.428c-0.555,0-0.832-0.277-0.832-0.831v-4.157h-4.711c-0.555,0-0.832-0.277-0.832-0.832V65.244 c0-3.604,3.049-6.652,6.652-6.652h15.798c3.604,0,6.651,3.049,6.651,6.652v11.363c0,0.555-0.276,0.832-0.83,0.832h-4.713v4.157 c0,0.554-0.277,0.831-0.831,0.831H193.459L193.459,82.428z M194.291,80.488h14.135V68.016h1.939v7.483h3.881V64.967 c0-2.494-2.217-4.712-4.712-4.712h-15.798c-2.494,0-4.712,2.218-4.712,4.712v10.532h3.88v-7.483h1.94L194.291,80.488 L194.291,80.488z"></path> <path fill="#FFB80C" d="M201.496,56.652c-3.88,0-6.929-3.049-6.929-6.93c0-3.88,3.049-6.929,6.929-6.929 c3.881,0,6.93,3.049,6.93,6.929l0,0C208.148,53.604,205.1,56.652,201.496,56.652z M201.496,44.734 c-2.771,0-4.988,2.217-4.988,4.989s2.217,4.989,4.988,4.989s4.989-2.218,4.989-4.989l0,0 C206.485,46.951,204.268,44.734,201.496,44.734L201.496,44.734L201.496,44.734z"></path> <path fill="#FFB80C" d="M227.827,82.428c-0.554,0-0.831-0.277-0.831-0.831v-4.157h-4.713c-0.554,0-0.831-0.277-0.831-0.832V65.244 c0-3.604,3.049-6.652,6.651-6.652h15.799c3.604,0,6.652,3.049,6.652,6.652v11.363c0,0.555-0.277,0.832-0.832,0.832h-4.711v4.157 c0,0.554-0.277,0.831-0.832,0.831H227.827L227.827,82.428z M228.658,80.488h14.136V68.016h1.94v7.483h3.88V64.967 c0-2.494-2.218-4.712-4.712-4.712h-15.799c-2.494,0-4.711,2.218-4.711,4.712v10.532h3.881v-7.483h1.939v12.473H228.658z"></path> <path fill="#FFB80C" d="M235.588,56.652c-3.881,0-6.93-3.049-6.93-6.93c0-3.88,3.049-6.929,6.93-6.929 c3.88,0,6.929,3.049,6.929,6.929C242.517,53.604,239.468,56.652,235.588,56.652L235.588,56.652z M235.588,44.734 c-2.771,0-4.989,2.217-4.989,4.989s2.218,4.989,4.989,4.989s4.988-2.218,4.988-4.989l0,0 C240.854,46.951,238.359,44.734,235.588,44.734L235.588,44.734L235.588,44.734z"></path> <path fill="#FFB80C" d="M211.475,43.071c-0.555,0-0.832-0.277-1.386-0.554l-4.157-3.603h-0.277c-0.555,0-1.109,0-1.663,0 c-6.929,0-12.749-4.712-12.749-10.532s5.82-10.809,13.025-10.809c7.207,0,13.027,4.711,13.027,10.532 c0,2.772-1.386,5.543-3.604,7.483l-0.277,0.277v5.266C213.414,42.239,212.86,43.071,211.475,43.071 C211.752,43.071,211.752,43.071,211.475,43.071z M206.485,36.974c0.277,0,0.555,0,0.555,0.277l4.435,4.158v-6.098 c0-0.277,0.277-0.555,0.277-0.832c2.217-1.386,3.326-3.88,3.604-6.375c0-4.989-4.99-8.869-11.088-8.869 c-6.097,0-11.086,3.88-11.086,8.869c0,4.989,4.989,8.87,11.086,8.87C205.1,37.25,205.654,37.25,206.485,36.974L206.485,36.974 L206.485,36.974z"></path> <path fill="#FFB80C" d="M225.332,43.071c-0.276,0-0.554,0-0.831-0.277c-0.554-0.277-1.108-0.832-1.108-1.663v-5.266l-0.277-0.277 c-2.217-1.94-3.604-4.435-3.604-7.483c0.277-5.82,6.098-10.532,13.305-10.532c7.205,0,13.026,4.711,13.026,10.532 c0,3.049-1.386,5.821-3.88,7.483c-2.495,1.94-5.82,3.049-9.146,3.049l0,0c-0.555,0-1.109,0-1.664,0h-0.276l-4.157,3.88 C226.441,42.794,226.164,43.071,225.332,43.071L225.332,43.071L225.332,43.071z M232.816,19.512 c-6.098,0-11.087,3.88-11.087,8.869c0,2.495,1.386,4.989,3.603,6.375c0.277,0.277,0.277,0.555,0.277,0.832v5.821l4.436-4.158 c0-0.277,0.276-0.277,0.554-0.277l0,0c0.554,0,1.386,0.277,1.94,0.277c6.098,0,11.086-3.88,11.086-8.869 S238.914,19.512,232.816,19.512L232.816,19.512z"></path> </g> <path fill="#FFB80C" d="M34.368,82.428c-3.049,0-5.543-1.662-5.543-3.88s2.495-3.88,5.543-3.88s5.543,1.662,5.543,3.88 c0,0.276,0,0.831-0.277,1.108l-0.277,0.832h0.832c4.157-0.277,7.483-1.387,9.701-3.604s3.88-5.266,3.88-8.592v-0.555l-7.207-0.555 c-2.217-0.277-3.603-1.939-3.603-4.157l1.386-16.629c0.277-1.94,1.94-3.603,3.88-3.603h0.277h1.386l-0.277-0.832 c-0.554-2.772-1.663-5.543-3.326-8.038c-5.82-8.315-17.184-10.532-25.499-4.989c-1.386,1.663-3.049,3.326-4.435,5.266 c-1.663,2.495-2.771,5.266-3.326,8.038v0.832h1.386h0.277c1.94,0,3.603,1.386,3.88,3.603l1.386,16.63 c0.277,2.218-1.386,3.88-3.603,4.157l-9.423,0.832l0,0c-3.326,0-6.375-4.989-6.929-11.641c-0.554-6.098,1.108-11.364,3.88-12.473 h0.277v-0.832c0.277-4.989,1.94-9.978,4.989-14.135c8.315-12.195,25.222-15.244,37.417-6.929c2.772,1.94,4.989,4.158,6.929,6.929 c3.049,4.157,4.712,9.146,4.989,14.135v0.277h0.277c1.386,0.554,2.495,1.94,3.049,3.88c0.832,2.772,1.108,5.543,0.832,8.315l0,0 l-0.832,4.988l0,0c-1.386,4.436-3.603,6.93-5.82,6.93h-0.554v0.555c-0.277,3.604-1.94,7.206-4.435,9.7 c-3.048,2.772-6.929,4.157-12.195,4.157c-0.554,0-1.386,0-2.217,0h-0.277h-0.277h-0.277C35.477,82.428,34.922,82.428,34.368,82.428 z M34.368,76.885c-2.217,0-3.88,1.108-3.88,1.939c0,0.832,1.663,1.941,3.88,1.941s3.88-1.109,3.88-1.941 C37.971,77.717,36.585,76.885,34.368,76.885z M5.266,45.288C3.326,45.565,1.386,50,1.94,56.098 c0.555,6.098,3.049,9.978,4.989,9.978l0,0l6.097-0.554l-1.663-20.788L5.266,45.288L5.266,45.288L5.266,45.288L5.266,45.288z M49.889,65.521l6.098,0.554h0.277c1.386,0,3.326-2.218,4.158-5.543l0,0l0.832-4.712l0,0c0.277-2.494,0-4.988-0.832-7.483 c-0.554-1.663-1.386-2.771-2.495-3.049H57.65l-6.098-0.554L49.889,65.521z M14.689,44.457L14.689,44.457h-1.663l1.94,20.788h1.386 c1.109,0,1.94-1.109,1.94-2.218l0,0l-1.386-16.629C16.63,45.288,15.798,44.457,14.689,44.457L14.689,44.457z M48.503,44.457 c-1.109,0-1.94,0.832-2.217,1.94L44.9,63.026c0,1.108,0.832,2.218,1.94,2.218h1.386l1.94-20.788H48.503L48.503,44.457z M31.597,24.224c6.652,0,13.026,3.326,16.629,8.869c1.94,2.771,3.326,6.097,3.603,9.423v0.554l4.989,0.555v-0.555 c-0.277-4.435-1.94-8.869-4.712-12.472c-7.761-11.918-23.282-14.689-34.922-6.929c-2.495,1.94-4.712,4.158-6.375,6.652 c-2.495,3.604-4.158,8.038-4.712,12.473v0.554l4.989-0.277v-0.554c0.554-3.326,1.663-6.652,3.603-9.423 C18.57,27.55,24.944,24.224,31.597,24.224L31.597,24.224z"></path> <g> <path fill="#FFB80C" d="M127.217,60.255c0.832,0,1.387-0.554,1.387-1.386c0-0.277-0.277-0.832-0.555-1.108 c-0.555-0.555-1.386-0.555-1.94,0c-0.554,0.554-0.554,1.386,0,2.218C126.663,59.979,126.939,60.255,127.217,60.255z"></path> <path fill="#FFB80C" d="M118.625,60.255c0.831,0,1.386-0.554,1.386-1.386c0-0.277-0.277-0.832-0.555-1.108 c-0.554-0.555-1.386-0.555-1.94,0c-0.554,0.554-0.554,1.386,0,1.94C117.794,59.979,118.071,60.255,118.625,60.255z"></path> <path fill="#FFB80C" d="M109.756,60.255c0.832,0,1.386-0.554,1.386-1.386c0-0.277-0.277-0.832-0.555-1.108 c-0.554-0.555-1.386-0.555-1.94,0c-0.554,0.554-0.554,1.386,0,1.94C108.925,59.979,109.202,60.255,109.756,60.255z"></path> <path fill="#FFB80C" d="M100.056,81.042c-0.277-0.276-0.555-0.554-0.555-0.831l-0.277-8.038 c-3.603-3.603-5.543-8.592-5.821-13.581c0-11.918,11.364-21.341,24.945-21.341c13.582,0,24.945,9.701,24.945,21.341 s-11.363,21.342-24.945,21.342c-3.326,0-6.652-0.555-9.978-1.663l-7.206,3.049C100.61,81.319,100.333,81.319,100.056,81.042z M108.925,75.775c3.049,1.109,6.375,1.664,9.423,1.664c12.472,0,22.727-8.592,22.727-19.125c0-10.532-10.255-19.124-22.727-19.124 s-22.727,8.592-22.727,19.124c0,4.712,1.94,9.146,5.543,12.195c0.277,0.277,0.277,0.555,0.277,0.832l0.277,6.651l6.375-2.494 C108.37,75.775,108.647,75.775,108.925,75.775L108.925,75.775L108.925,75.775z"></path> <path fill="#FFB80C" d="M152.717,52.494c0.554,0,1.107-0.555,1.107-1.108v-0.277l-1.385-6.375 c2.494-2.771,4.157-6.098,4.157-9.978c0-8.869-8.315-16.075-18.57-16.075s-18.57,7.206-18.57,16.075 c0,0.555,0.555,1.109,1.109,1.386c0.554,0,1.108-0.555,1.386-1.109c0,0,0,0,0-0.277c0-7.483,7.206-13.581,16.353-13.581 s16.353,6.097,16.353,13.581c0,3.326-1.386,6.375-3.881,8.592c-0.276,0.277-0.554,0.832-0.276,1.108l1.108,4.989l-6.098-2.217 c-0.277,0-0.555,0-0.831,0h-0.277l-0.554,0.277c-0.555,0-1.109,0.832-0.832,1.386c0,0.554,0.832,1.108,1.386,0.831l0,0h0.277 h0.276l7.484,2.771H152.717z"></path> </g> </g> </svg> 