<?xml version="1.0" encoding="UTF-8"?> <svg xmlns="http://www.w3.org/2000/svg" version="1.1" id="Layer_1" x="0" y="0" viewBox="0 0 510.21 80.2" xml:space="preserve"><style>.st0{fill:#1d1d1b}</style><path class="st0" d="M4.28 22.76h11.21c5 0 6.87.17 8.29.79 1.96.83 4.5 3.21 4.5 7.08 0 2.96-.96 4.42-3.79 5.96 3.33 1.38 4.87 3.46 4.87 7.33 0 4.92-3.79 8.21-9.46 8.21H4.19v-4.79h2.29V27.56h-2.2v-4.8zm8.21 4.8v7.12h5.79c2.5 0 4.21-1.54 4.21-3.75 0-1.96-1.92-3.37-4.62-3.37h-5.38zm0 11.74v8.04h6.17c2.62 0 4.67-1.71 4.67-3.96 0-2.46-2.08-4.08-5.25-4.08h-5.59zm41.46 5.5c-1 4.83-5.04 7.83-10.46 7.83-6.25 0-10.83-4.87-10.83-11.71 0-6.75 4.62-11.75 10.87-11.75 3.54 0 6.66 1.67 8.58 4.54 2.04 3.12 2.12 6.08 2.21 8.33H38.24c.54 5.79 4.33 6.08 5.37 6.08 2.21 0 3.67-1.04 4.54-3.33h5.8v.01zm-5.71-6.58c-.37-2.83-2.08-4.37-4.71-4.37-2.42 0-4.29 1.62-5 4.37h9.71zm24.12-.67h10.17v14.58H79.2V47.6c-.92 1.5-1.33 2.04-2.17 2.75-1.92 1.67-4.25 2.54-6.75 2.54-6.83 0-12.17-6.67-12.17-15.25 0-8.67 5.29-15.42 12.08-15.42 2.79 0 6.08.79 8.75 5.08v-4.54h3.08v9.33h-3.21c-.42-1.62-.92-2.67-1.67-3.58-1.67-2.04-3.92-3.21-6.25-3.21-3.62 0-8.83 3.08-8.83 12.16 0 7.04 3.79 12.29 8.87 12.29 3.71 0 7.21-3.04 8.04-6.96.13-.58.17-1.17.21-2.37h-6.83v-2.87h.01zm35.21 14.59h-6.33v-3.96c-1.79 2.79-4.21 4.38-7.5 4.38-4.17 0-7.21-2.88-7.21-6.75 0-4.25 3.75-6.38 12.58-7.21.29-.04 1.21-.12 2.08-.21V36.1c0-2.54-1.96-4.13-5.04-4.13-3.25 0-4.71 1.08-5.37 3.96H87.4c.5-2.25 1.17-3.42 2.5-4.58 1.5-1.25 3.58-1.92 6-1.92 4.58 0 8.5 2.12 8.5 7.75v12.33h3.17v2.63zm-6.38-11.46l-2.04.25c-6.83.83-9.12 2.08-9.12 4.92 0 2.33 2.04 4.25 4.62 4.25 3.96 0 6.54-3.75 6.54-5.79v-3.63zm15.65-6.75c1-1.54 3-4.62 7.08-4.62 2.96 0 4.67 1.54 5.21 4.67.87-1.5 1.29-2.04 2.12-2.75 1.46-1.29 3.04-1.92 4.79-1.92 3.42 0 5.42 2.21 5.42 6.08v14.12h3.08v2.62h-6.29V36.56c0-3.13-1.04-4.54-3.21-4.54-3.87 0-5.92 4.67-5.92 6.17v11.33h3.21v2.62h-6.42V36.05c0-2.79-1.04-4.04-3.21-4.04-3.46 0-5.92 4.29-5.92 6.33v11.17h3.17v2.62h-9.62v-2.62h3.25V32.35h-3.25v-2.67h6.5v4.25h.01zm31.04-12.46h6.25v12.96c.83-1.58 3.42-4.96 7.33-4.96 5.04 0 8.87 5.12 8.87 11.71 0 6.12-4.08 11.25-8.96 11.25-3.96 0-5.87-2.62-7.25-4.5v4.21h-6.37v-2.62h3.17V24.1h-3.04v-2.63zm6.24 21.21c0 3.71 3 7 6.42 7 3.83 0 6.29-3.46 6.29-8.83 0-5.17-2.46-8.71-6.17-8.71-3.25 0-6.54 3.62-6.54 6.79v3.75zm18.75-21.21h6.37v28.04h3v2.63h-9.41v-2.63h3.2V24.1h-3.16v-2.63zm31.03 24.5c-.46 1.54-.96 2.46-1.79 3.41-1.79 2.08-4.25 3.21-7.04 3.21-6.08 0-10.33-4.75-10.33-11.58 0-6.58 4.25-11.62 9.79-11.62 5.58 0 9.87 4.33 9.87 12.17h-16.21c.29 3.29 1.04 5.12 2.58 6.62 1.17 1.13 2.54 1.67 4.21 1.67 2.58 0 4.17-1.17 5.29-3.87h3.63v-.01zm-3.21-6.87c-.25-2.79-.88-4.33-2.17-5.58-1-.92-2.25-1.38-3.71-1.38-2.71 0-4.96 1.83-5.96 4.79-.17.54-.38 1.37-.46 2.17h12.3zm17.33-16.34h7.04l8.08 24.58h2.21v4.79h-6.75l-1.92-6.37h-10.33l-1.92 6.37h-6.83v-4.79h2.25l8.17-24.58zm3.54 5.5l-3.92 13h7.75l-3.83-13zm13.62 1.59h8.92v4.33h-2.25l3.08 13.12 3.67-17.45h5.75l3.71 17.24 2.95-12.91h-2.16v-4.33h8.95v4.33h-1.91l-4.79 17.96h-5.92l-3.71-15.5-3.5 15.5h-5.99l-4.92-17.96h-1.88v-4.33zm53.71 17.95h1.92v4.33h-6.92v-2.62c-2.29 2.29-4 3.08-6.75 3.08-4.46 0-7.87-3-7.87-6.96 0-6.54 7.37-7.25 14.5-7.92-.04-3.42-.87-4.29-4.13-4.29-2.29 0-3.87 1.29-4 3.37l-5.42-.17c.29-4.46 3.87-7.33 9.17-7.33 6.17 0 9.5 2.79 9.5 7.87V47.8zm-5.21-6.2c-5.25.5-8.67.96-8.67 4.04 0 1.83 1.46 3.04 3.67 3.04 2.83 0 5-2.12 5-4.92V41.6zm18.62-8.29c1.46-2.83 3.08-4 5.58-4 .75 0 1.42.08 2.5.29v5.21c-1-.21-1.79-.29-2.71-.29-2.92 0-5.37 2.08-5.37 4.62v8.66h2.67v4.33h-10.29V47.8h2.17V34.18h-2.12v-4.33h7.58v3.46h-.01zm30.5 11.49c-1 4.83-5.04 7.83-10.46 7.83-6.25 0-10.83-4.87-10.83-11.71 0-6.75 4.62-11.75 10.87-11.75 3.54 0 6.67 1.67 8.58 4.54 2.04 3.12 2.12 6.08 2.21 8.33h-16.08c.54 5.79 4.33 6.08 5.37 6.08 2.21 0 3.67-1.04 4.54-3.33h5.8v.01zm-5.71-6.58c-.37-2.83-2.08-4.37-4.71-4.37-2.42 0-4.29 1.62-5 4.37h9.71zm8.77 11.08h2.9v2.84h-2.9V49.3zm6.31-5.58c0-5.11 3.15-8.63 7.7-8.63 4.46 0 7.7 3.64 7.7 8.63 0 5.2-3.18 8.79-7.76 8.79-4.56 0-7.64-3.55-7.64-8.79zm7.6 6.7c3.18 0 5.08-2.56 5.08-6.76 0-3.96-1.99-6.48-5.08-6.48-3.02 0-4.89 2.52-4.89 6.61 0 4.17 1.84 6.63 4.89 6.63zm14.74-11.22c.81-1.75 1.25-2.28 1.99-2.99a4.69 4.69 0 013.05-1.15c.4 0 .97.06 1.81.19v2.46c-.84-.15-1.34-.22-1.78-.22-4.55 0-5.08 4.71-5.08 4.95v7.73h2.87v1.96h-7.67v-1.96h2.4V37.33h-2.49v-1.99h4.89v3.86h.01zm20.67 8.82c-1.53 2.15-3.21 2.87-5.05 2.87-4.02 0-6.79-3.3-6.79-8.07 0-4.52 2.71-7.73 6.51-7.73 3.08 0 4.46 1.96 5.33 3.24v-2.99h4.74v1.99h-2.34V51.1c0 4.05-2.59 6.36-7.14 6.36-2.77 0-5.14-1.22-6.26-3.18-.22-.41-.41-.81-.68-1.65h2.71c1 2.03 2.18 2.77 4.42 2.77 2.84 0 4.55-1.46 4.55-3.89v-3.49zm0-6.48c0-1.84-2.24-4.46-4.8-4.46-2.74 0-4.42 2.24-4.42 5.89 0 3.71 1.71 5.95 4.58 5.95 2.46 0 4.64-2.4 4.64-4.36v-3.02zm9.35-31.95h3.58c.83 0 1.45.18 1.86.54.41.36.62.85.62 1.49 0 .36-.05.65-.16.89-.1.23-.23.42-.37.57-.14.14-.28.25-.41.31-.14.06-.24.1-.3.13v.02c.11.01.23.05.36.11a.9.9 0 01.36.27c.11.12.21.28.28.48.07.2.11.44.11.74 0 .44.03.84.1 1.2s.17.62.31.77h-1.41c-.1-.16-.16-.34-.17-.54-.02-.19-.03-.39-.03-.57 0-.34-.02-.64-.06-.89-.04-.25-.12-.45-.23-.62a.924.924 0 00-.46-.36c-.19-.08-.44-.12-.74-.12h-1.93v3.09h-1.31V9.59zm1.32 3.41H398c.42 0 .74-.1.96-.3s.33-.5.33-.9c0-.24-.03-.43-.1-.58a.843.843 0 00-.29-.35c-.12-.08-.26-.14-.42-.17-.16-.03-.32-.04-.49-.04h-2.13V13h-.01z"></path><path class="st0" d="M397.57 20.87c-4.01 0-7.27-3.26-7.27-7.27s3.26-7.27 7.27-7.27 7.27 3.26 7.27 7.27-3.27 7.27-7.27 7.27zm0-13.35a6.09 6.09 0 00-6.08 6.08 6.09 6.09 0 006.08 6.08 6.09 6.09 0 006.08-6.08 6.09 6.09 0 00-6.08-6.08z"></path><path d="M470.34 3.65c-20.21 0-36.6 16.39-36.6 36.6s16.39 36.6 36.6 36.6 36.6-16.39 36.6-36.6-16.38-36.6-36.6-36.6zM455.83 54.2h-5.6V35.59l-3.78 2.85-2.53-4.42 6.92-5.06h4.99V54.2zm18.92-4.07a6.98 6.98 0 01-1.66 2.41c-.71.68-1.58 1.21-2.6 1.6-1.02.39-2.18.59-3.46.59-1.26 0-2.39-.2-3.4-.59-1.01-.39-1.87-.93-2.57-1.6s-1.24-1.48-1.62-2.41c-.38-.93-.57-1.94-.57-3.03 0-.86.11-1.62.34-2.3.23-.68.52-1.28.89-1.8s.79-.95 1.27-1.28.96-.59 1.46-.79v-.07c-1.12-.45-1.97-1.15-2.57-2.09-.59-.94-.89-2.09-.89-3.44 0-.88.16-1.74.48-2.57s.8-1.57 1.43-2.21c.63-.64 1.43-1.16 2.39-1.55s2.09-.59 3.37-.59 2.41.2 3.39.59c.97.39 1.79.91 2.44 1.55s1.15 1.38 1.48 2.21c.33.83.5 1.69.5 2.57 0 1.35-.3 2.5-.89 3.44-.59.94-1.44 1.63-2.53 2.09v.07c.5.19.99.46 1.46.8s.9.77 1.27 1.28.66 1.11.87 1.78.32 1.44.32 2.3c-.01 1.11-.21 2.12-.6 3.04zm14.99-4.49v7.45h-4.63v-7.45h-7.6v-4.49h7.56V33.7h4.63v7.45h7.59v4.49h-7.55z"></path><path d="M467.03 39.01c.74 0 1.31-.33 1.73-1 .42-.67.62-1.43.62-2.28 0-.93-.2-1.69-.61-2.3-.41-.61-.99-.91-1.75-.91s-1.34.3-1.73.91c-.39.61-.59 1.37-.59 2.3 0 .86.21 1.62.62 2.28.43.67.99 1 1.71 1zm0 4.14c-.76 0-1.38.34-1.85 1.02-.48.68-.71 1.55-.71 2.62 0 1.05.22 1.91.68 2.59.45.68 1.08 1.02 1.89 1.02.83 0 1.47-.34 1.91-1.02.44-.68.66-1.54.66-2.59 0-1.07-.24-1.94-.71-2.62-.49-.69-1.11-1.02-1.87-1.02z"></path></svg> 