<?xml version="1.0" encoding="UTF-8"?> <svg xmlns="http://www.w3.org/2000/svg" xmlns:xlink="http://www.w3.org/1999/xlink" version="1.1" id="Layer_1" x="0px" y="0px" viewBox="0 0 360.3 98" style="enable-background:new 0 0 360.3 98;" xml:space="preserve"> <style type="text/css"> .st0{fill:#FFFFFF;} </style> <g> <g> <path class="st0" d="M143.1,14.9h5.9v7.8c-0.8,0.3-1.6,0.5-2.5,0.6c-0.9,0.2-1.8,0.2-2.9,0.2c-2.2,0-4-0.7-5.2-2 c-1.2-1.3-1.8-3.2-1.8-5.8c0-1.6,0.3-2.9,0.9-4.1c0.6-1.1,1.5-2,2.7-2.7s2.6-0.9,4.3-0.9c0.8,0,1.6,0.1,2.4,0.3s1.5,0.4,2.1,0.7 l-1,2.5c-0.5-0.2-1-0.4-1.6-0.6c-0.6-0.2-1.2-0.2-1.8-0.2c-0.9,0-1.7,0.2-2.4,0.6c-0.7,0.4-1.2,1-1.6,1.8 c-0.4,0.8-0.6,1.7-0.6,2.7c0,1,0.1,1.8,0.4,2.6c0.3,0.8,0.7,1.3,1.3,1.8s1.3,0.6,2.2,0.6c0.4,0,0.8,0,1.1-0.1 c0.3,0,0.6-0.1,0.9-0.1v-3.1h-2.8V14.9z"></path> <path class="st0" d="M156.9,11.6c1.5,0,2.7,0.3,3.5,1c0.8,0.7,1.2,1.7,1.2,3.1v7.6h-2.2l-0.6-1.6h-0.1c-0.5,0.6-1,1.1-1.6,1.3 c-0.5,0.3-1.3,0.4-2.2,0.4c-1,0-1.9-0.3-2.5-0.9c-0.7-0.6-1-1.5-1-2.8c0-1.2,0.4-2.1,1.3-2.7c0.9-0.6,2.1-0.9,3.8-1l2-0.1v-0.5 c0-0.6-0.2-1-0.5-1.3s-0.8-0.4-1.3-0.4s-1.1,0.1-1.6,0.2c-0.5,0.2-1.1,0.4-1.6,0.6l-1-2.1c0.6-0.3,1.3-0.6,2-0.7 C155.3,11.7,156.1,11.6,156.9,11.6z M158.6,18l-1.2,0c-1,0-1.7,0.2-2.1,0.5c-0.4,0.3-0.6,0.8-0.6,1.3c0,0.5,0.1,0.8,0.4,1 c0.3,0.2,0.6,0.3,1.1,0.3c0.7,0,1.2-0.2,1.7-0.6c0.5-0.4,0.7-1,0.7-1.7V18z"></path> <path class="st0" d="M177.2,11.6c1.3,0,2.3,0.3,3,1s1,1.7,1,3.2v7.5H178v-6.7c0-1.7-0.6-2.5-1.7-2.5c-0.8,0-1.4,0.3-1.8,0.9 s-0.5,1.4-0.5,2.5v5.8h-3.1v-6.7c0-1.7-0.6-2.5-1.7-2.5c-0.9,0-1.5,0.3-1.8,1c-0.3,0.7-0.5,1.6-0.5,2.8v5.4h-3.1V11.8h2.4l0.4,1.5 h0.2c0.3-0.6,0.8-1,1.4-1.3c0.6-0.3,1.2-0.4,1.9-0.4c0.8,0,1.5,0.1,2.1,0.4c0.6,0.3,1,0.7,1.4,1.3h0.3c0.3-0.6,0.8-1,1.5-1.3 C175.9,11.7,176.5,11.6,177.2,11.6z"></path> <path class="st0" d="M186.7,7.3V11c0,0.4,0,0.9,0,1.3c0,0.4-0.1,0.7-0.1,1h0.1c0.3-0.5,0.7-0.9,1.2-1.2s1.2-0.5,2-0.5 c1.3,0,2.3,0.5,3.1,1.5c0.8,1,1.2,2.5,1.2,4.4c0,2-0.4,3.4-1.2,4.5c-0.8,1-1.9,1.5-3.2,1.5c-0.8,0-1.5-0.2-2-0.5 c-0.5-0.3-0.9-0.6-1.2-1h-0.2l-0.5,1.3h-2.4v-16H186.7z M188.9,14.1c-0.8,0-1.4,0.3-1.7,0.8c-0.3,0.5-0.5,1.3-0.5,2.3v0.3 c0,1.1,0.2,2,0.5,2.6c0.3,0.6,0.9,0.9,1.8,0.9c0.6,0,1.2-0.3,1.5-0.9c0.4-0.6,0.6-1.5,0.6-2.6s-0.2-2-0.6-2.5 C190.1,14.4,189.6,14.1,188.9,14.1z"></path> <path class="st0" d="M198.9,23.3h-3.1v-16h3.1V23.3z"></path> <path class="st0" d="M203.6,7.3c0.5,0,0.9,0.1,1.2,0.3c0.3,0.2,0.5,0.6,0.5,1.2c0,0.6-0.2,1-0.5,1.2c-0.3,0.2-0.7,0.3-1.2,0.3 c-0.5,0-0.9-0.1-1.2-0.3c-0.3-0.2-0.5-0.6-0.5-1.2c0-0.6,0.2-1,0.5-1.2C202.8,7.4,203.2,7.3,203.6,7.3z M205.2,11.8v11.5h-3.1 V11.8H205.2z"></path> <path class="st0" d="M213.8,11.6c1.2,0,2.2,0.3,3,1c0.7,0.7,1.1,1.7,1.1,3.2v7.5h-3.1v-6.7c0-0.8-0.1-1.4-0.4-1.9 s-0.8-0.6-1.4-0.6c-1,0-1.6,0.3-2,1c-0.4,0.7-0.5,1.6-0.5,2.8v5.4h-3.1V11.8h2.4l0.4,1.5h0.2c0.4-0.6,0.9-1,1.5-1.3 C212.5,11.7,213.1,11.6,213.8,11.6z"></path> <path class="st0" d="M224,11.6c1.4,0,2.5,0.6,3.3,1.7h0.1l0.3-1.5h2.6v11.5c0,1.6-0.5,2.9-1.4,3.7s-2.4,1.3-4.3,1.3 c-0.8,0-1.6,0-2.3-0.1c-0.7-0.1-1.4-0.3-2-0.5v-2.5c1.4,0.6,2.9,0.9,4.5,0.9c1.6,0,2.4-0.9,2.4-2.6v-0.2c0-0.2,0-0.5,0-0.7 c0-0.3,0-0.5,0.1-0.7h-0.1c-0.4,0.6-0.9,1-1.4,1.3c-0.5,0.3-1.2,0.4-1.8,0.4c-1.4,0-2.4-0.5-3.2-1.6c-0.8-1-1.1-2.5-1.1-4.4 c0-1.9,0.4-3.3,1.2-4.4C221.6,12.1,222.7,11.6,224,11.6z M225,14.1c-1.5,0-2.2,1.2-2.2,3.5c0,2.3,0.7,3.4,2.2,3.4 c0.8,0,1.4-0.2,1.8-0.7s0.6-1.2,0.6-2.4v-0.4c0-1.2-0.2-2.1-0.6-2.6S225.9,14.1,225,14.1z"></path> <path class="st0" d="M249.9,23.3h-3.2v-6.5h-5.9v6.5h-3.2v-15h3.2v5.9h5.9V8.3h3.2V23.3z"></path> <path class="st0" d="M258.1,11.6c1.6,0,2.8,0.5,3.8,1.4c0.9,0.9,1.4,2.2,1.4,3.9v1.5h-7.4c0,0.9,0.3,1.6,0.8,2.1s1.2,0.8,2.1,0.8 c0.7,0,1.4-0.1,2-0.2c0.6-0.1,1.2-0.4,1.9-0.7v2.4c-0.6,0.3-1.2,0.5-1.8,0.6c-0.6,0.1-1.4,0.2-2.2,0.2c-1.1,0-2.2-0.2-3-0.6 c-0.9-0.4-1.6-1.1-2.1-1.9c-0.5-0.9-0.8-2-0.8-3.3c0-1.3,0.2-2.4,0.7-3.3c0.5-0.9,1.1-1.6,1.9-2C256.1,11.8,257,11.6,258.1,11.6z M258.1,13.8c-0.6,0-1.1,0.2-1.5,0.6c-0.4,0.4-0.6,1-0.7,1.8h4.4c0-0.7-0.2-1.3-0.6-1.7C259.4,14.1,258.9,13.8,258.1,13.8z"></path> <path class="st0" d="M268.1,23.3h-3.1v-16h3.1V23.3z"></path> <path class="st0" d="M277.1,11.6c1.3,0,2.3,0.5,3.1,1.5c0.8,1,1.2,2.5,1.2,4.4c0,2-0.4,3.4-1.2,4.5c-0.8,1-1.9,1.5-3.2,1.5 c-0.8,0-1.5-0.2-2-0.5s-0.9-0.6-1.2-1h-0.2c0.1,0.6,0.2,1.1,0.2,1.7v4.6h-3.1V11.8h2.5l0.4,1.5h0.1c0.3-0.5,0.7-0.9,1.2-1.2 S276.3,11.6,277.1,11.6z M276.1,14.1c-0.8,0-1.4,0.3-1.7,0.8c-0.3,0.5-0.5,1.3-0.5,2.3v0.3c0,1.1,0.2,2,0.5,2.6 c0.3,0.6,0.9,0.9,1.8,0.9c0.7,0,1.2-0.3,1.6-0.9c0.3-0.6,0.5-1.5,0.5-2.6C278.3,15.2,277.6,14.1,276.1,14.1z"></path> <path class="st0" d="M286.3,23.3h-3.1v-16h3.1V23.3z"></path> <path class="st0" d="M290.7,7.3c0.5,0,0.9,0.1,1.2,0.3c0.3,0.2,0.5,0.6,0.5,1.2c0,0.6-0.2,1-0.5,1.2c-0.3,0.2-0.7,0.3-1.2,0.3 c-0.5,0-0.9-0.1-1.2-0.3c-0.3-0.2-0.5-0.6-0.5-1.2c0-0.6,0.2-1,0.5-1.2C289.8,7.4,290.2,7.3,290.7,7.3z M292.3,11.8v11.5h-3.1 V11.8H292.3z"></path> <path class="st0" d="M301.5,11.6c1.2,0,2.2,0.3,3,1c0.7,0.7,1.1,1.7,1.1,3.2v7.5h-3.1v-6.7c0-0.8-0.1-1.4-0.4-1.9 s-0.8-0.6-1.4-0.6c-1,0-1.6,0.3-2,1c-0.4,0.7-0.5,1.6-0.5,2.8v5.4H295V11.8h2.4l0.4,1.5h0.2c0.4-0.6,0.9-1,1.5-1.3 C300.1,11.7,300.8,11.6,301.5,11.6z"></path> <path class="st0" d="M312.5,11.6c1.6,0,2.8,0.5,3.8,1.4c0.9,0.9,1.4,2.2,1.4,3.9v1.5h-7.4c0,0.9,0.3,1.6,0.8,2.1s1.2,0.8,2.1,0.8 c0.7,0,1.4-0.1,2-0.2c0.6-0.1,1.2-0.4,1.9-0.7v2.4c-0.6,0.3-1.2,0.5-1.8,0.6c-0.6,0.1-1.4,0.2-2.2,0.2c-1.1,0-2.2-0.2-3-0.6 c-0.9-0.4-1.6-1.1-2.1-1.9c-0.5-0.9-0.8-2-0.8-3.3c0-1.3,0.2-2.4,0.7-3.3c0.5-0.9,1.1-1.6,1.9-2C310.5,11.8,311.4,11.6,312.5,11.6 z M312.5,13.8c-0.6,0-1.1,0.2-1.5,0.6c-0.4,0.4-0.6,1-0.7,1.8h4.4c0-0.7-0.2-1.3-0.6-1.7C313.8,14.1,313.2,13.8,312.5,13.8z"></path> <path class="st0" d="M319.1,13.3c0-0.6,0.2-1.1,0.5-1.4c0.4-0.3,0.8-0.4,1.3-0.4c0.5,0,0.9,0.1,1.3,0.4c0.3,0.3,0.5,0.7,0.5,1.4 c0,0.6-0.2,1.1-0.5,1.3c-0.3,0.3-0.8,0.4-1.3,0.4c-0.5,0-0.9-0.1-1.3-0.4C319.2,14.4,319.1,14,319.1,13.3z M319.1,21.8 c0-0.6,0.2-1.1,0.5-1.4c0.4-0.3,0.8-0.4,1.3-0.4c0.5,0,0.9,0.1,1.3,0.4s0.5,0.7,0.5,1.4c0,0.6-0.2,1.1-0.5,1.3 c-0.3,0.3-0.8,0.4-1.3,0.4c-0.5,0-0.9-0.1-1.3-0.4C319.2,22.9,319.1,22.4,319.1,21.8z"></path> </g> <g> <path class="st0" d="M119.6,36.6v13.3c0,2.8-0.8,5-2.4,6.6c-1.6,1.6-4,2.5-7.2,2.5c-3.1,0-5.4-0.8-7-2.3c-1.6-1.6-2.4-3.8-2.4-6.6 V36.6h6v13c0,1.6,0.3,2.7,0.9,3.4c0.6,0.7,1.5,1.1,2.6,1.1c1.2,0,2.1-0.4,2.6-1.1c0.5-0.7,0.8-1.9,0.8-3.4V36.6H119.6z"></path> <path class="st0" d="M142,58.7h-6.8l-4.4-8.5l-1.8,1.1v7.4h-6V36.6h6v9.6c0.2-0.5,0.5-1,0.9-1.4c0.3-0.5,0.7-0.9,1-1.4l4.6-6.8 h6.5l-7,9.9L142,58.7z"></path> <path class="st0" d="M142.9,44.2c0-1.1,0.3-1.8,0.9-2.2c0.6-0.4,1.4-0.7,2.3-0.7c0.8,0,1.5,0.2,2.2,0.7c0.6,0.4,0.9,1.2,0.9,2.2 c0,1-0.3,1.8-0.9,2.2c-0.6,0.5-1.3,0.7-2.2,0.7c-0.9,0-1.6-0.2-2.3-0.7C143.2,46,142.9,45.2,142.9,44.2z M142.9,56.2 c0-1.1,0.3-1.8,0.9-2.3c0.6-0.4,1.4-0.7,2.3-0.7c0.8,0,1.5,0.2,2.2,0.7c0.6,0.4,0.9,1.2,0.9,2.3c0,1-0.3,1.7-0.9,2.2 c-0.6,0.5-1.3,0.7-2.2,0.7c-0.9,0-1.6-0.2-2.3-0.7C143.2,57.9,142.9,57.2,142.9,56.2z"></path> <path class="st0" d="M173.8,47.6c0,2.4-0.3,4.4-0.8,6.1c-0.5,1.7-1.3,3-2.5,3.9c-1.2,0.9-2.7,1.4-4.7,1.4c-2.8,0-4.8-1-6.1-3 c-1.3-2-1.9-4.8-1.9-8.3c0-2.4,0.3-4.4,0.8-6.1c0.5-1.7,1.3-3,2.5-3.9c1.2-0.9,2.7-1.4,4.7-1.4c2.7,0,4.8,1,6.1,3 C173.1,41.3,173.8,44.1,173.8,47.6z M163.7,47.6c0,2.2,0.1,3.8,0.4,4.9c0.3,1.1,0.8,1.7,1.7,1.7c0.8,0,1.4-0.5,1.6-1.6 c0.3-1.1,0.4-2.7,0.4-4.9c0-2.2-0.1-3.8-0.4-5c-0.3-1.1-0.8-1.7-1.6-1.7c-0.8,0-1.4,0.6-1.7,1.7C163.9,43.8,163.7,45.5,163.7,47.6 z"></path> <path class="st0" d="M182.6,36.2c2.2,0,4,0.4,5.3,1.3s2,2.2,2,4.1c0,1.3-0.4,2.4-1.1,3.3c-0.7,0.9-1.6,1.6-2.7,2.1 c0.7,0.4,1.4,0.9,2.1,1.4c0.7,0.5,1.2,1.1,1.7,1.9c0.5,0.7,0.7,1.6,0.7,2.5c0,1.2-0.3,2.3-0.9,3.2c-0.6,0.9-1.5,1.7-2.6,2.2 c-1.2,0.5-2.7,0.8-4.6,0.8c-2.8,0-4.9-0.6-6.1-1.7c-1.3-1.1-1.9-2.6-1.9-4.4c0-1.5,0.4-2.7,1.1-3.6c0.8-0.8,1.7-1.6,2.9-2.2 c-0.9-0.6-1.7-1.4-2.4-2.3c-0.7-0.9-1-2-1-3.3c0-1.2,0.3-2.2,1-3c0.6-0.8,1.5-1.4,2.6-1.8C179.8,36.4,181.1,36.2,182.6,36.2z M179.9,52.6c0,0.6,0.2,1.1,0.7,1.5c0.4,0.4,1.1,0.6,1.8,0.6c0.9,0,1.6-0.2,2-0.5c0.4-0.4,0.6-0.8,0.6-1.4c0-0.5-0.1-0.9-0.4-1.2 c-0.3-0.4-0.6-0.7-0.9-1c-0.4-0.3-0.7-0.5-0.9-0.6l-0.4-0.2c-0.7,0.4-1.3,0.8-1.8,1.2C180.2,51.4,179.9,51.9,179.9,52.6z M182.5,40.6c-0.5,0-0.9,0.1-1.3,0.4c-0.4,0.3-0.5,0.7-0.5,1.2c0,0.5,0.2,0.9,0.5,1.3c0.3,0.4,0.8,0.7,1.3,1 c0.4-0.2,0.9-0.5,1.3-0.9c0.4-0.3,0.6-0.8,0.6-1.4c0-0.5-0.2-0.9-0.5-1.2S183,40.6,182.5,40.6z"></path> <path class="st0" d="M207.2,47.6c0,2.4-0.3,4.4-0.8,6.1c-0.5,1.7-1.3,3-2.5,3.9c-1.2,0.9-2.7,1.4-4.7,1.4c-2.8,0-4.8-1-6.1-3 c-1.3-2-1.9-4.8-1.9-8.3c0-2.4,0.3-4.4,0.8-6.1c0.5-1.7,1.3-3,2.5-3.9c1.2-0.9,2.7-1.4,4.7-1.4c2.7,0,4.8,1,6.1,3 C206.6,41.3,207.2,44.1,207.2,47.6z M197.2,47.6c0,2.2,0.1,3.8,0.4,4.9c0.3,1.1,0.8,1.7,1.7,1.7c0.8,0,1.4-0.5,1.6-1.6 c0.3-1.1,0.4-2.7,0.4-4.9c0-2.2-0.1-3.8-0.4-5c-0.3-1.1-0.8-1.7-1.6-1.7c-0.8,0-1.4,0.6-1.7,1.7C197.3,43.8,197.2,45.5,197.2,47.6 z"></path> <path class="st0" d="M217,36.2c2.2,0,4,0.4,5.3,1.3s2,2.2,2,4.1c0,1.3-0.4,2.4-1.1,3.3c-0.7,0.9-1.6,1.6-2.7,2.1 c0.7,0.4,1.4,0.9,2.1,1.4c0.7,0.5,1.2,1.1,1.7,1.9c0.5,0.7,0.7,1.6,0.7,2.5c0,1.2-0.3,2.3-0.9,3.2c-0.6,0.9-1.5,1.7-2.6,2.2 c-1.2,0.5-2.7,0.8-4.6,0.8c-2.8,0-4.9-0.6-6.1-1.7c-1.3-1.1-1.9-2.6-1.9-4.4c0-1.5,0.4-2.7,1.1-3.6c0.8-0.8,1.7-1.6,2.9-2.2 c-0.9-0.6-1.7-1.4-2.4-2.3c-0.7-0.9-1-2-1-3.3c0-1.2,0.3-2.2,1-3c0.6-0.8,1.5-1.4,2.6-1.8C214.2,36.4,215.5,36.2,217,36.2z M214.3,52.6c0,0.6,0.2,1.1,0.7,1.5c0.4,0.4,1.1,0.6,1.8,0.6c0.9,0,1.6-0.2,2-0.5c0.4-0.4,0.6-0.8,0.6-1.4c0-0.5-0.1-0.9-0.4-1.2 c-0.3-0.4-0.6-0.7-0.9-1c-0.4-0.3-0.7-0.5-0.9-0.6l-0.4-0.2c-0.7,0.4-1.3,0.8-1.8,1.2C214.6,51.4,214.3,51.9,214.3,52.6z M216.9,40.6c-0.5,0-0.9,0.1-1.3,0.4c-0.4,0.3-0.5,0.7-0.5,1.2c0,0.5,0.2,0.9,0.5,1.3c0.3,0.4,0.8,0.7,1.3,1 c0.4-0.2,0.9-0.5,1.3-0.9c0.4-0.3,0.6-0.8,0.6-1.4c0-0.5-0.2-0.9-0.5-1.2S217.4,40.6,216.9,40.6z"></path> <path class="st0" d="M241.8,36.2c2.2,0,4,0.4,5.3,1.3s2,2.2,2,4.1c0,1.3-0.4,2.4-1.1,3.3c-0.7,0.9-1.6,1.6-2.7,2.1 c0.7,0.4,1.4,0.9,2.1,1.4c0.7,0.5,1.2,1.1,1.7,1.9c0.5,0.7,0.7,1.6,0.7,2.5c0,1.2-0.3,2.3-0.9,3.2c-0.6,0.9-1.5,1.7-2.6,2.2 c-1.2,0.5-2.7,0.8-4.6,0.8c-2.8,0-4.9-0.6-6.1-1.7c-1.3-1.1-1.9-2.6-1.9-4.4c0-1.5,0.4-2.7,1.1-3.6c0.8-0.8,1.7-1.6,2.9-2.2 c-0.9-0.6-1.7-1.4-2.4-2.3c-0.7-0.9-1-2-1-3.3c0-1.2,0.3-2.2,1-3c0.6-0.8,1.5-1.4,2.6-1.8C239,36.4,240.3,36.2,241.8,36.2z M239.1,52.6c0,0.6,0.2,1.1,0.7,1.5c0.4,0.4,1.1,0.6,1.8,0.6c0.9,0,1.6-0.2,2-0.5c0.4-0.4,0.6-0.8,0.6-1.4c0-0.5-0.1-0.9-0.4-1.2 c-0.3-0.4-0.6-0.7-0.9-1c-0.4-0.3-0.7-0.5-0.9-0.6l-0.4-0.2c-0.7,0.4-1.3,0.8-1.8,1.2C239.4,51.4,239.1,51.9,239.1,52.6z M241.7,40.6c-0.5,0-0.9,0.1-1.3,0.4c-0.4,0.3-0.5,0.7-0.5,1.2c0,0.5,0.2,0.9,0.5,1.3c0.3,0.4,0.8,0.7,1.3,1 c0.4-0.2,0.9-0.5,1.3-0.9c0.4-0.3,0.6-0.8,0.6-1.4c0-0.5-0.2-0.9-0.5-1.2S242.2,40.6,241.7,40.6z"></path> <path class="st0" d="M266.9,47.6c0,2.4-0.3,4.4-0.8,6.1c-0.5,1.7-1.3,3-2.5,3.9c-1.2,0.9-2.7,1.4-4.7,1.4c-2.8,0-4.8-1-6.1-3 c-1.3-2-1.9-4.8-1.9-8.3c0-2.4,0.3-4.4,0.8-6.1c0.5-1.7,1.3-3,2.5-3.9c1.2-0.9,2.7-1.4,4.7-1.4c2.7,0,4.8,1,6.1,3 C266.3,41.3,266.9,44.1,266.9,47.6z M256.9,47.6c0,2.2,0.1,3.8,0.4,4.9c0.3,1.1,0.8,1.7,1.7,1.7c0.8,0,1.4-0.5,1.6-1.6 c0.3-1.1,0.4-2.7,0.4-4.9c0-2.2-0.1-3.8-0.4-5c-0.3-1.1-0.8-1.7-1.6-1.7c-0.8,0-1.4,0.6-1.7,1.7C257,43.8,256.9,45.5,256.9,47.6z"></path> <path class="st0" d="M283.9,58.7h-16v-3.9l5.4-5.5c1.1-1.2,2-2.1,2.6-2.8c0.6-0.7,1.1-1.3,1.3-1.8c0.3-0.5,0.4-1,0.4-1.5 c0-0.7-0.2-1.1-0.6-1.4c-0.4-0.3-0.9-0.4-1.5-0.4c-0.7,0-1.4,0.2-2.1,0.6s-1.5,1-2.4,1.8l-3.3-3.8c0.7-0.6,1.4-1.1,2.1-1.7 c0.7-0.5,1.6-1,2.6-1.3c1-0.3,2.3-0.5,3.7-0.5c1.5,0,2.8,0.3,3.9,0.8c1.1,0.5,2,1.2,2.6,2.2c0.6,0.9,0.9,1.9,0.9,3.1 c0,1.3-0.2,2.4-0.7,3.4c-0.5,1-1.2,2-2.1,3c-0.9,1-2.1,2.1-3.5,3.4l-1.6,1.5v0.2h8.4V58.7z"></path> <path class="st0" d="M300.8,47.6c0,2.4-0.3,4.4-0.8,6.1s-1.3,3-2.5,3.9c-1.2,0.9-2.7,1.4-4.7,1.4c-2.8,0-4.8-1-6.1-3 c-1.3-2-1.9-4.8-1.9-8.3c0-2.4,0.3-4.4,0.8-6.1c0.5-1.7,1.3-3,2.5-3.9c1.2-0.9,2.7-1.4,4.7-1.4c2.7,0,4.8,1,6.1,3 C300.1,41.3,300.8,44.1,300.8,47.6z M290.7,47.6c0,2.2,0.1,3.8,0.4,4.9s0.8,1.7,1.7,1.7c0.8,0,1.4-0.5,1.6-1.6 c0.3-1.1,0.4-2.7,0.4-4.9c0-2.2-0.1-3.8-0.4-5c-0.3-1.1-0.8-1.7-1.6-1.7c-0.8,0-1.4,0.6-1.7,1.7C290.8,43.8,290.7,45.5,290.7,47.6 z"></path> <path class="st0" d="M322.7,58.7h-6.1V47.7c0-0.2,0-0.6,0-1.1c0-0.5,0-1.1,0-1.8c0-0.7,0-1.2,0.1-1.8c-0.3,0.3-0.5,0.6-0.7,0.8 c-0.2,0.2-0.4,0.4-0.6,0.6l-2.5,2.1l-3.1-3.8l7.6-6.2h5.4V58.7z"></path> <path class="st0" d="M342,41.4c0,1.1-0.2,2-0.7,2.7c-0.5,0.8-1.1,1.4-1.8,1.9c-0.7,0.5-1.5,0.9-2.4,1.1v0.1 c1.8,0.2,3.1,0.8,4.1,1.6c1,0.8,1.4,2.1,1.4,3.6c0,1.2-0.3,2.3-1,3.3c-0.7,1-1.7,1.8-3,2.4c-1.4,0.6-3.1,0.9-5.2,0.9 c-1.4,0-2.6-0.1-3.7-0.3s-2-0.5-2.9-0.9v-5c0.9,0.5,1.9,0.9,2.9,1.1c1,0.2,1.9,0.4,2.8,0.4c1.5,0,2.5-0.2,3-0.6 c0.5-0.4,0.8-1,0.8-1.7c0-0.5-0.1-0.9-0.4-1.3c-0.3-0.4-0.7-0.6-1.4-0.8c-0.7-0.2-1.7-0.3-2.9-0.3h-1.4v-4.5h1.4 c1.7,0,2.9-0.2,3.5-0.6c0.7-0.4,1-1,1-1.7c0-0.6-0.2-1-0.7-1.3c-0.5-0.3-1.1-0.4-1.8-0.4c-0.7,0-1.3,0.1-1.9,0.3 c-0.6,0.2-1.1,0.4-1.5,0.6c-0.4,0.2-0.8,0.4-1,0.5l-2.5-4c0.9-0.6,2-1.1,3.1-1.6c1.2-0.4,2.7-0.7,4.7-0.7c2.3,0,4.1,0.5,5.4,1.4 C341.3,38.5,342,39.8,342,41.4z"></path> <path class="st0" d="M358.9,41.4c0,1.1-0.2,2-0.7,2.7c-0.5,0.8-1.1,1.4-1.8,1.9c-0.7,0.5-1.5,0.9-2.4,1.1v0.1 c1.8,0.2,3.1,0.8,4.1,1.6c1,0.8,1.4,2.1,1.4,3.6c0,1.2-0.3,2.3-1,3.3c-0.7,1-1.7,1.8-3,2.4c-1.4,0.6-3.1,0.9-5.2,0.9 c-1.4,0-2.6-0.1-3.7-0.3s-2-0.5-2.9-0.9v-5c0.9,0.5,1.9,0.9,2.9,1.1c1,0.2,1.9,0.4,2.8,0.4c1.5,0,2.5-0.2,3-0.6 c0.5-0.4,0.8-1,0.8-1.7c0-0.5-0.1-0.9-0.4-1.3c-0.3-0.4-0.7-0.6-1.4-0.8c-0.7-0.2-1.7-0.3-2.9-0.3h-1.4v-4.5h1.4 c1.7,0,2.9-0.2,3.5-0.6c0.7-0.4,1-1,1-1.7c0-0.6-0.2-1-0.7-1.3c-0.5-0.3-1.1-0.4-1.8-0.4c-0.7,0-1.3,0.1-1.9,0.3 c-0.6,0.2-1.1,0.4-1.5,0.6c-0.4,0.2-0.8,0.4-1,0.5l-2.5-4c0.9-0.6,2-1.1,3.1-1.6c1.2-0.4,2.7-0.7,4.7-0.7c2.3,0,4.1,0.5,5.4,1.4 C358.2,38.5,358.9,39.8,358.9,41.4z"></path> </g> <g> <path class="st0" d="M110.4,93.8H98.5v-3.5l2.9-1.1V75.5l-2.9-1.1v-3.5h11.9v3.5l-2.9,1.1v13.7l2.9,1.1V93.8z"></path> <path class="st0" d="M119.7,70.9c6.2,0,9.3,2.3,9.3,6.8c0,1.4-0.3,2.6-1,3.6c-0.7,1-1.6,1.9-2.8,2.5l6.7,10h-7l-4.8-8.3h-1.6v8.3 h-6.2V70.9H119.7z M119.6,75.6h-1.2v5.2h1.2c0.9,0,1.7-0.2,2.3-0.6c0.6-0.4,0.9-1.2,0.9-2.2c0-0.7-0.3-1.3-0.8-1.7 C121.5,75.8,120.7,75.6,119.6,75.6z"></path> <path class="st0" d="M132.6,93.8V70.9h6.2v17.9h8.8v5H132.6z"></path> <path class="st0" d="M149.2,78.8c0-1.1,0.3-1.9,1-2.3c0.7-0.4,1.4-0.7,2.4-0.7c0.9,0,1.6,0.2,2.2,0.7c0.6,0.4,1,1.2,1,2.3 c0,1.1-0.3,1.8-1,2.3c-0.6,0.5-1.4,0.7-2.2,0.7c-0.9,0-1.7-0.2-2.4-0.7C149.5,80.7,149.2,79.9,149.2,78.8z M149.2,91.2 c0-1.1,0.3-1.9,1-2.3c0.7-0.4,1.4-0.7,2.4-0.7c0.9,0,1.6,0.2,2.2,0.7c0.6,0.4,1,1.2,1,2.3c0,1-0.3,1.8-1,2.3 c-0.6,0.5-1.4,0.7-2.2,0.7c-0.9,0-1.7-0.2-2.4-0.7C149.5,93,149.2,92.2,149.2,91.2z"></path> <path class="st0" d="M181.2,93.8h-6.3V82.5c0-0.2,0-0.6,0-1.1c0-0.6,0-1.2,0-1.9c0-0.7,0-1.3,0.1-1.8c-0.3,0.3-0.5,0.6-0.8,0.8 c-0.2,0.2-0.5,0.4-0.7,0.6l-2.6,2.1l-3.2-3.9l7.9-6.4h5.6V93.8z"></path> <path class="st0" d="M191.3,70.6c2.3,0,4.1,0.5,5.5,1.4c1.4,0.9,2.1,2.3,2.1,4.2c0,1.4-0.4,2.5-1.1,3.4c-0.7,0.9-1.7,1.6-2.8,2.2 c0.7,0.4,1.4,0.9,2.1,1.4c0.7,0.5,1.3,1.2,1.8,1.9c0.5,0.7,0.7,1.6,0.7,2.6c0,1.2-0.3,2.3-0.9,3.3c-0.6,1-1.5,1.7-2.7,2.3 c-1.2,0.6-2.8,0.8-4.7,0.8c-2.9,0-5-0.6-6.3-1.8c-1.3-1.2-2-2.7-2-4.6c0-1.6,0.4-2.8,1.2-3.7c0.8-0.9,1.8-1.6,3-2.2 c-1-0.6-1.8-1.4-2.5-2.3c-0.7-0.9-1-2-1-3.4c0-1.2,0.3-2.2,1-3.1c0.7-0.8,1.6-1.4,2.7-1.9C188.4,70.8,189.7,70.6,191.3,70.6z M188.5,87.5c0,0.6,0.2,1.2,0.7,1.6c0.5,0.4,1.1,0.6,1.9,0.6c0.9,0,1.6-0.2,2.1-0.5s0.7-0.9,0.7-1.5c0-0.5-0.1-0.9-0.4-1.3 s-0.6-0.7-1-1c-0.4-0.3-0.7-0.5-0.9-0.6l-0.4-0.3c-0.7,0.4-1.3,0.8-1.8,1.3C188.8,86.2,188.5,86.8,188.5,87.5z M191.2,75 c-0.5,0-1,0.1-1.3,0.4c-0.4,0.3-0.6,0.7-0.6,1.2c0,0.5,0.2,0.9,0.5,1.3c0.4,0.4,0.8,0.7,1.3,1c0.4-0.3,0.9-0.6,1.3-0.9 c0.4-0.4,0.6-0.8,0.6-1.5c0-0.5-0.2-0.9-0.6-1.2C192.2,75.2,191.7,75,191.2,75z"></path> <path class="st0" d="M217.8,82.4c0,2.4-0.3,4.5-0.8,6.3c-0.5,1.8-1.4,3.1-2.6,4c-1.2,0.9-2.8,1.4-4.9,1.4c-2.9,0-5-1-6.3-3.1 c-1.3-2.1-2-4.9-2-8.6c0-2.5,0.3-4.6,0.8-6.3c0.5-1.8,1.4-3.1,2.6-4c1.2-0.9,2.8-1.4,4.9-1.4c2.8,0,4.9,1,6.3,3.1 C217.1,75.8,217.8,78.7,217.8,82.4z M207.4,82.4c0,2.2,0.1,3.9,0.4,5.1s0.8,1.7,1.7,1.7c0.9,0,1.4-0.6,1.7-1.7 c0.3-1.1,0.4-2.8,0.4-5.1s-0.1-4-0.4-5.1c-0.3-1.2-0.8-1.7-1.7-1.7c-0.9,0-1.4,0.6-1.7,1.7C207.5,78.4,207.4,80.1,207.4,82.4z"></path> <path class="st0" d="M235.3,82.4c0,2.4-0.3,4.5-0.8,6.3c-0.5,1.8-1.4,3.1-2.6,4c-1.2,0.9-2.8,1.4-4.9,1.4c-2.9,0-5-1-6.3-3.1 c-1.3-2.1-2-4.9-2-8.6c0-2.5,0.3-4.6,0.8-6.3c0.5-1.8,1.4-3.1,2.6-4c1.2-0.9,2.8-1.4,4.9-1.4c2.8,0,4.9,1,6.3,3.1 C234.6,75.8,235.3,78.7,235.3,82.4z M224.9,82.4c0,2.2,0.1,3.9,0.4,5.1c0.3,1.1,0.8,1.7,1.7,1.7c0.9,0,1.4-0.6,1.7-1.7 c0.3-1.1,0.4-2.8,0.4-5.1s-0.1-4-0.4-5.1c-0.3-1.2-0.8-1.7-1.7-1.7c-0.9,0-1.4,0.6-1.7,1.7C225,78.4,224.9,80.1,224.9,82.4z"></path> <path class="st0" d="M262.6,80.9c0,2.7-0.4,5.1-1.2,7c-0.8,2-2.1,3.5-3.8,4.6c-1.8,1.1-4,1.6-6.9,1.6c-0.5,0-1,0-1.6,0 c-0.6,0-1.1-0.1-1.6-0.1v-4.9c0.4,0.1,0.9,0.2,1.3,0.2c0.4,0,1,0.1,1.6,0.1c1.7,0,3-0.2,4-0.7c1-0.5,1.6-1.2,2-2.1 c0.4-0.9,0.6-1.9,0.7-3h-0.2c-0.4,0.8-1,1.4-1.7,1.9c-0.7,0.5-1.7,0.8-3,0.8c-1.9,0-3.5-0.6-4.6-1.9c-1.1-1.3-1.7-3.1-1.7-5.5 c0-2.5,0.7-4.5,2.2-6s3.4-2.1,5.9-2.1c1.6,0,3,0.4,4.3,1.1c1.3,0.7,2.3,1.8,3.1,3.4C262.2,76.6,262.6,78.5,262.6,80.9z M254.2,75.5c-0.7,0-1.3,0.2-1.7,0.7c-0.4,0.5-0.6,1.3-0.6,2.4c0,0.9,0.2,1.5,0.5,2c0.4,0.5,0.9,0.8,1.7,0.8 c0.7,0,1.2-0.3,1.7-0.8s0.7-1.1,0.7-1.7c0-0.6-0.1-1.1-0.2-1.6c-0.2-0.5-0.4-0.9-0.7-1.3C255.2,75.7,254.7,75.5,254.2,75.5z"></path> <path class="st0" d="M279.6,75.9c0,1.1-0.2,2-0.7,2.8c-0.5,0.8-1.1,1.4-1.9,1.9c-0.8,0.5-1.6,0.9-2.5,1.1v0.1 c1.8,0.2,3.3,0.8,4.2,1.7c1,0.9,1.5,2.1,1.5,3.7c0,1.2-0.3,2.4-1,3.4c-0.7,1-1.7,1.9-3.1,2.5c-1.4,0.6-3.2,0.9-5.4,0.9 c-1.5,0-2.7-0.1-3.8-0.3c-1-0.2-2.1-0.5-3-0.9v-5.1c1,0.5,2,0.9,3,1.1c1,0.2,2,0.4,2.9,0.4c1.5,0,2.5-0.2,3.1-0.6 c0.5-0.4,0.8-1,0.8-1.7c0-0.5-0.1-1-0.4-1.3c-0.3-0.4-0.8-0.6-1.5-0.8c-0.7-0.2-1.7-0.3-3-0.3h-1.4v-4.6h1.4c1.8,0,3-0.2,3.7-0.7 c0.7-0.4,1-1,1-1.7c0-0.6-0.2-1.1-0.7-1.4c-0.5-0.3-1.1-0.4-1.9-0.4c-0.7,0-1.4,0.1-2,0.3c-0.6,0.2-1.1,0.4-1.6,0.6 c-0.4,0.2-0.8,0.4-1,0.6l-2.6-4.1c0.9-0.6,2-1.2,3.3-1.6c1.2-0.4,2.8-0.7,4.8-0.7c2.3,0,4.2,0.5,5.6,1.4 C278.9,72.9,279.6,74.2,279.6,75.9z"></path> <path class="st0" d="M281.1,84.1c0-1.3,0.1-2.6,0.3-3.9c0.2-1.3,0.5-2.5,1-3.7c0.5-1.2,1.2-2.2,2.1-3.1c0.9-0.9,2-1.6,3.4-2.1 c1.4-0.5,3.1-0.8,5.1-0.8c0.4,0,1,0,1.7,0.1c0.7,0.1,1.2,0.1,1.6,0.2v4.8c-0.4-0.1-0.9-0.2-1.4-0.2c-0.5-0.1-1.2-0.1-2-0.1 c-1.5,0-2.8,0.2-3.7,0.7c-0.9,0.5-1.5,1.1-1.9,2c-0.4,0.9-0.6,1.9-0.7,3.1h0.2c0.4-0.7,1-1.4,1.7-1.9c0.7-0.5,1.7-0.8,2.9-0.8 c2,0,3.6,0.6,4.7,1.9c1.1,1.3,1.7,3.1,1.7,5.5c0,2.6-0.7,4.6-2.2,6s-3.4,2.1-5.9,2.1c-1.6,0-3.1-0.4-4.4-1.1 c-1.3-0.7-2.3-1.8-3.1-3.3C281.5,88.3,281.1,86.4,281.1,84.1z M289.6,89.2c0.7,0,1.2-0.3,1.6-0.8c0.4-0.5,0.6-1.3,0.6-2.4 c0-0.9-0.2-1.5-0.5-2c-0.3-0.5-0.9-0.8-1.6-0.8c-0.8,0-1.4,0.3-1.8,0.8c-0.4,0.5-0.6,1.1-0.6,1.7c0,0.6,0.1,1.1,0.2,1.6 c0.2,0.5,0.4,1,0.8,1.3C288.6,89,289,89.2,289.6,89.2z"></path> <path class="st0" d="M310,93.8l7.9-17.8h-9.9v-5.1h16.5v3.7l-8,19.2H310z"></path> <path class="st0" d="M342.6,93.8H326v-4.1l5.6-5.6c1.2-1.2,2.1-2.2,2.7-2.9c0.6-0.7,1.1-1.3,1.4-1.9c0.3-0.5,0.4-1,0.4-1.6 c0-0.7-0.2-1.2-0.7-1.5c-0.4-0.3-1-0.4-1.6-0.4c-0.7,0-1.5,0.2-2.2,0.6c-0.7,0.4-1.6,1-2.5,1.8l-3.4-4c0.7-0.6,1.4-1.2,2.2-1.7 c0.8-0.6,1.7-1,2.7-1.4c1.1-0.4,2.3-0.5,3.9-0.5c1.5,0,2.9,0.3,4,0.8c1.1,0.5,2,1.3,2.7,2.2c0.6,0.9,0.9,2,0.9,3.2 c0,1.3-0.2,2.5-0.7,3.5s-1.2,2.1-2.2,3.1c-1,1-2.2,2.2-3.6,3.5l-1.7,1.5v0.2h8.7V93.8z"></path> <path class="st0" d="M353.3,78.8c1.3,0,2.4,0.3,3.5,0.9c1,0.6,1.9,1.4,2.5,2.5c0.6,1.1,0.9,2.4,0.9,4c0,2.6-0.8,4.5-2.3,5.9 c-1.5,1.4-3.9,2.1-7,2.1c-2.6,0-4.8-0.4-6.5-1.2v-5.1c0.8,0.4,1.8,0.7,2.9,1c1.1,0.3,2.2,0.4,3.1,0.4c1.1,0,2-0.2,2.6-0.7 c0.6-0.5,0.9-1.2,0.9-2.1c0-0.9-0.3-1.5-0.9-2c-0.6-0.5-1.6-0.8-2.8-0.8c-0.6,0-1.1,0.1-1.7,0.2c-0.6,0.1-1,0.2-1.4,0.4l-2.3-1.1 l0.9-12.1h13v5.2h-7.8l-0.3,3c0.3-0.1,0.7-0.1,1-0.2C352,78.8,352.6,78.8,353.3,78.8z"></path> </g> <g> <path class="st0" d="M34.2,64.2C34.2,64.2,34.2,64.2,34.2,64.2c-1.1,0-2.2-0.5-2.9-1.3l-9.3-10c-1.5-1.6-1.4-4.1,0.2-5.7 c1.6-1.5,4.1-1.4,5.7,0.2l6.4,6.9l19-20c1.5-1.6,4.1-1.7,5.7-0.1c1.6,1.5,1.7,4.1,0.1,5.7L37.1,63C36.4,63.8,35.3,64.2,34.2,64.2z "></path> </g> <g> <path class="st0" d="M39.9,98.2c-2.4,0-8.8,0-31.8-26.7C2.9,65.4,0,57.5,0,49.4V19.6c0-1.6,0.9-3,2.4-3.7L39,0.1 c1-0.4,2.2-0.4,3.2,0l35.3,15.8c1.5,0.7,2.4,2.1,2.4,3.7l-0.7,30.5c-0.2,7.6-2.9,15.1-7.8,20.9C48.9,98.2,42.4,98.2,39.9,98.2z M8,22.2v27.2c0,6.2,2.2,12.2,6.2,16.9c20,23.3,25.5,23.9,25.7,23.9c0.2,0,5.7-0.6,25.3-24.2c3.7-4.5,5.8-10.2,6-16l0.6-27.8 l-31.3-14L8,22.2z"></path> </g> </g> </svg> 