<?xml version="1.0" encoding="UTF-8"?> <!-- Generator: Adobe Illustrator 16.0.0, SVG Export Plug-In . SVG Version: 6.00 Build 0) --> <svg xmlns="http://www.w3.org/2000/svg" xmlns:xlink="http://www.w3.org/1999/xlink" id="Слой_1" x="0px" y="0px" width="130px" height="22.344px" viewBox="-2.63 -1.844 130 22.344" xml:space="preserve"> <path fill="#1E1E1E" d="M32.66,10.208c0-3.506,2.345-3.57,5.505-3.57h0.359c3.084,0,4.77,0.499,4.77,3.89v2.364 c0,2.843-0.766,4.051-4.878,4.051H37.63c-3.904,0-4.97-1.029-4.97-3.857C32.66,13.087,32.66,10.208,32.66,10.208z M32.66,17.746 h0.064c0.968,1.225,2.754,1.855,4.946,1.855h1.134c4.589,0,7.944-1.118,7.942-6.179v-3.09c0-4.686-2.159-6.354-7.798-6.354h-1.753 c-2.46,0-3.83,0.8-4.473,1.666h-0.061v-7.486h-3.449v20.963h3.449L32.66,17.746L32.66,17.746L32.66,17.746z M88.569,4.352h-4.634V3 c0-1.29,0.887-2.328,2.771-2.328l3.438,0.003v-2.519l-4.572,0.002c-2.766,0-5.088,1.377-5.088,4.855v1.338h-1.858v2.653h1.858 v12.589h3.451V7.005h4.633C88.569,7.005,88.569,4.352,88.569,4.352z M68.627,14.734c0,3.481,2.324,4.862,5.088,4.862H78v-2.653 H74.56c-1.88,0-2.479-0.9-2.479-2.192V7.005h4.635V4.352H72.08v-6.196h-3.45v6.196h-1.856v2.653h1.856L68.627,14.734z"></path> <rect x="108.368" y="-1.844" fill="#1E1E1E" width="3.451" height="3.505"></rect> <rect x="108.366" y="3.981" fill="#1E1E1E" width="3.452" height="15.619"></rect> <path fill="#1E1E1E" d="M51.924,9.937c0-2.999,1.459-3.299,5.015-3.299L57.64,6.64c4.004,0,4.521,0.963,4.521,2.937l0.003,0.837 l-10.241,0.004C51.924,10.419,51.924,9.937,51.924,9.937z M55.684,19.6h3.103c4.181,0,6.091-1.271,6.577-3.49l-3.068-0.892 c-0.509,1.368-1.74,1.724-4.442,1.724h-0.8c-4.42,0-5.136-0.534-5.14-3.867l0.008-0.004h13.692v-2.889c0-5.229-2.838-6.2-7.371-6.2 h-1.688c-3.589,0-7.938,0.603-7.938,5.922v3.689C48.618,18.757,52.388,19.604,55.684,19.6 M101.853,14.933 c0,1.471-1.048,2.011-5.134,2.011h-0.923c-3.472,0-3.912-0.642-3.912-1.905v-0.824c0-1.47,0.865-2.022,3.739-2.022h1.536 c2.62,0,4.694,0.491,4.694,2.137L101.853,14.933L101.853,14.933z M97.568,3.981h-1.29c-4.682,0-6.709,1.379-6.841,3.441l3.288,1.046 c0.151-1.412,1.845-1.827,4.409-1.827c3.811,0,4.714,0.21,4.714,2.848v1.433h-0.067c-0.864-1.1-2.04-1.384-5.028-1.384h-1.347 c-4.407,0-6.974,1.047-6.974,4.383v0.953c0.004,2.757,1.1,4.724,5.702,4.724h3.348c3.327,0,3.662-0.523,4.317-1.438h0.053v1.435 h3.449V9.558C105.303,5.182,102.269,3.981,97.568,3.981 M122.342,3.981c-1.533,0-3.097,0.556-4.066,2.075h-0.124V3.981l-3.267,0.001 V19.6h3.452v-9.396c0-1.897,1.14-3.562,3.818-3.562c1.913,0,2.839,0.494,3.043,1.017l2.172-1.404 C126.836,4.834,125.397,3.981,122.342,3.981"></path> <polygon fill="#1E1E1E" points="22.629,-1.844 13.886,-1.844 13.886,3.013 9.149,3.013 18.392,13.811 27.632,3.013 22.629,3.013 "></polygon> <polygon fill="#1E1E1E" points="-2.63,15.644 2.228,15.644 2.228,20.5 10.971,20.5 10.971,15.644 15.854,15.644 6.616,4.851 "></polygon> </svg> 