<?xml version="1.0" encoding="UTF-8"?> <svg xmlns="http://www.w3.org/2000/svg" viewBox="0 0 422.89 60.04"><g data-name="Layer 2"><g data-name="Layer 1"><path d="M68.71 19.59a15.68 15.68 0 00-.41-2.15v.3c.16.82.2.77.38 1.85" fill="#567028"></path><path d="M40.56 41.49h-7.83V18.55h7.83zm-13.25 0h-7.83V18.55h7.83zM30 0a30 30 0 1030 30A30 30 0 0030 0m56.5 41.48h-7.72V25.04h-5.64v-6.52h19v6.52H86.5v16.44zM102 26.53l-1.88 5.67h3.73zm-4-8h8.2l9 23h-8.4l-1.2-3.37h-7.38l-1.14 3.37h-8.17zm26.29 13.8h-.07v9.15h-7.49V18.52h7.46v8.46h.07l6.12-8.46h9.08l-8.62 10.51 9.04 12.45h-9.46l-6.13-9.15zm17.18-13.81h15.79v6.42h-8.52v1.98h8v6h-8v2.14h9.07v6.42h-16.34V18.52zm40.09 22.96h-7.72V25.04h-5.64v-6.52h19v6.52h-5.64v16.44zm8.01-22.96h7.78v22.96h-7.78zm17.88 9.99l.36 12.97h-7.2V18.52h10.1l4.15 12.36h.16l3.61-12.36h10.42v22.96h-7.53l.23-12.91-.19-.03-4.28 12.94h-5.45l-4.22-12.97h-.16zm24.86-9.99h15.79v6.42h-8.53v1.98h8.01v6h-8.01v2.14h9.08v6.42h-16.34V18.52zm40.09 22.96h-7.72V25.04h-5.64v-6.52h19v6.52h-5.64v16.44zm14.23-11.61a5.91 5.91 0 00.34 2.07 5.12 5.12 0 00.94 1.63 4.19 4.19 0 001.44 1 4.45 4.45 0 001.82.37 4.3 4.3 0 001.8-.37 4.38 4.38 0 001.44-1 5 5 0 001-1.63 6.15 6.15 0 00.34-2.07 6 6 0 00-.34-2 4.42 4.42 0 00-1-1.55 4.51 4.51 0 00-1.44-1 4.45 4.45 0 00-1.8-.36 4.62 4.62 0 00-1.82.36 4.3 4.3 0 00-1.44 1 4.53 4.53 0 00-.94 1.55 5.81 5.81 0 00-.34 2m-8.2 0a12.26 12.26 0 011-5 11 11 0 012.67-3.77 11.85 11.85 0 014-2.4 15.49 15.49 0 0110.12 0 12.09 12.09 0 014 2.4 10.82 10.82 0 012.78 3.79 12.26 12.26 0 011 5 12.64 12.64 0 01-1 5 11.31 11.31 0 01-2.69 3.87 12.11 12.11 0 01-4 2.48 15 15 0 01-10.12 0 11.87 11.87 0 01-4-2.48 11.54 11.54 0 01-2.67-3.87 12.64 12.64 0 01-1-5m46.98 11.59h-7.72V25.04h-5.64v-6.52h19v6.52h-5.64v16.44zm22.01-8.72h-6.29v8.72h-7.71V18.52h7.68v7.78h6.29v-7.78h7.75v22.96h-7.72v-8.72zm10.98-14.24h7.78v22.96h-7.78zm11.04 0h7.69l6.55 11.64h.13l-.33-11.64h7.33v22.96h-7.88l-6.35-10.96h-.13l.32 10.96h-7.33V18.52zm32.18 13.81h-.06v9.15h-7.49V18.52h7.46v8.46h.06l6.13-8.46h9.08l-8.63 10.51 9.05 12.45h-9.47l-6.13-9.15zm17.88-13.42v1.71h-.52v-1.71h-.6v-.44h1.73v.44h-.61zm2.79 1.71l.01-1.52h-.01l-.56 1.52h-.36l-.54-1.52h-.01l.01 1.52h-.49v-2.15h.74l.49 1.38h.01l.47-1.38h.75v2.15h-.51z"></path></g></g></svg> 