<?xml version="1.0" encoding="UTF-8"?> <svg xmlns="http://www.w3.org/2000/svg" width="217" height="18" viewBox="0 0 217 18" fill="none"><path d="M0.600098 8.66003V6.60003H2.4101V3.60003H5.00011V6.60003H7.58011V8.66003H5.00011V13.46C4.98568 13.8539 5.06809 14.2454 5.24011 14.6C5.41345 14.9 5.78345 15.05 6.35011 15.05C6.53653 15.0636 6.72369 15.0636 6.91011 15.05C7.09684 15.0175 7.27843 14.9604 7.4501 14.88L7.5401 16.88C7.27299 16.97 6.99866 17.0369 6.72011 17.08C6.4226 17.1297 6.12172 17.1565 5.82011 17.16C5.24616 17.1795 4.67431 17.0808 4.14011 16.87C3.74461 16.692 3.4006 16.4168 3.14011 16.07C2.88369 15.7262 2.70614 15.3302 2.6201 14.91C2.52586 14.446 2.47896 13.9736 2.4801 13.5V8.66003H0.600098ZM15.7601 12.21H15.1801C14.7701 12.21 14.3301 12.21 13.8701 12.27C13.4392 12.2967 13.013 12.3739 12.6001 12.5C12.2351 12.604 11.8949 12.7809 11.6001 13.02C11.4733 13.134 11.3733 13.2748 11.3076 13.4322C11.2419 13.5896 11.212 13.7597 11.2201 13.93C11.2063 14.1453 11.2624 14.3593 11.3801 14.54C11.4865 14.7047 11.6305 14.8418 11.8001 14.94C11.9808 15.0431 12.1765 15.1173 12.3801 15.16C12.5911 15.1998 12.8054 15.2199 13.0201 15.22C13.384 15.2418 13.7486 15.1901 14.0922 15.0681C14.4358 14.9462 14.7513 14.7564 15.0201 14.51C15.4922 13.9814 15.7365 13.2878 15.7001 12.58L15.7601 12.21ZM15.8101 15.61H15.7401C15.4449 16.1025 15.0098 16.4959 14.4901 16.74C13.8694 17.0479 13.1827 17.199 12.4901 17.18C12.0519 17.1793 11.6154 17.1255 11.1901 17.02C10.7456 16.9128 10.3229 16.7302 9.94011 16.48C9.5344 16.2279 9.19223 15.8857 8.94011 15.48C8.67741 15.0178 8.54925 14.4913 8.57011 13.96C8.53809 13.2823 8.77122 12.6188 9.22011 12.11C9.72317 11.6279 10.3331 11.2715 11.0001 11.07C11.7414 10.8188 12.5103 10.6576 13.2901 10.59C14.1301 10.51 14.9501 10.47 15.7501 10.47V10.21C15.7694 9.93118 15.7149 9.65216 15.592 9.4011C15.4691 9.15004 15.2822 8.93582 15.0501 8.78003C14.5559 8.46269 13.9772 8.30233 13.3901 8.32003C12.8482 8.31702 12.3122 8.43309 11.8201 8.66003C11.3571 8.86395 10.9339 9.14835 10.5701 9.50003L9.24011 7.93003C9.81736 7.39223 10.4978 6.97718 11.2401 6.71003C11.9865 6.43685 12.7753 6.29805 13.5701 6.30003C14.3455 6.27364 15.118 6.40637 15.8401 6.69003C16.3861 6.90061 16.8708 7.24437 17.2501 7.69003C17.5865 8.09671 17.832 8.57065 17.9701 9.08003C18.1047 9.58564 18.172 10.1068 18.1701 10.63V16.91H15.7701L15.8101 15.61ZM21.2701 0.660034H23.8501V10.94H23.9101L27.8301 6.60003H31.1401L26.6601 11.27L31.4201 16.92H28.0001L23.9101 11.63H23.8501V16.92H21.2701V0.660034ZM39.7801 10.73C39.7903 10.3912 39.7429 10.0531 39.6401 9.73003C39.5499 9.43267 39.3958 9.15862 39.1885 8.92714C38.9812 8.69566 38.7258 8.51233 38.4401 8.39003C38.0959 8.24298 37.7243 8.17138 37.3501 8.18003C36.6205 8.16232 35.9094 8.41118 35.3501 8.88003C35.0903 9.10644 34.8778 9.38207 34.7251 9.69102C34.5723 9.99996 34.4823 10.3361 34.4601 10.68L39.7801 10.73ZM42.3601 11.89V12.23C42.37 12.3465 42.37 12.4636 42.3601 12.58H34.5101C34.5326 12.9315 34.6288 13.2743 34.7925 13.5861C34.9562 13.898 35.1836 14.1719 35.4601 14.39C35.7341 14.6181 36.0453 14.7974 36.3801 14.92C36.7258 15.0477 37.0916 15.112 37.4601 15.11C38.0241 15.1309 38.5844 15.0106 39.0901 14.76C39.5349 14.5243 39.9131 14.1804 40.1901 13.76L41.9101 15.14C41.3981 15.8213 40.726 16.3658 39.9532 16.7251C39.1805 17.0844 38.331 17.2476 37.4801 17.2C36.7262 17.2117 35.9768 17.0829 35.2701 16.82C34.6189 16.587 34.0206 16.2267 33.5101 15.76C33.0074 15.2858 32.612 14.7096 32.3501 14.07C32.0589 13.3493 31.916 12.5772 31.9301 11.8C31.9198 11.0264 32.0625 10.2583 32.3501 9.54003C32.6078 8.88316 32.9994 8.28717 33.5001 7.79003C33.9962 7.30733 34.5846 6.92978 35.2301 6.68003C35.9175 6.4084 36.651 6.27256 37.3901 6.28003C38.0726 6.2734 38.7505 6.39203 39.3901 6.63003C39.9896 6.86034 40.5296 7.22263 40.9701 7.69003C41.4378 8.19444 41.7894 8.79518 42.0001 9.45003C42.263 10.236 42.3881 11.0615 42.3701 11.89H42.3601ZM43.3701 8.66003V6.60003H45.1801V3.60003H47.7201V6.60003H50.3001V8.66003H47.7201V13.46C47.7181 13.8573 47.8142 14.2489 48.0001 14.6C48.1668 14.9 48.5368 15.05 49.1101 15.05C49.2965 15.0636 49.4837 15.0636 49.6701 15.05C49.8568 15.0175 50.0384 14.9604 50.2101 14.88L50.2901 16.88C50.0264 16.9701 49.7554 17.0371 49.4801 17.08C49.1793 17.1302 48.8751 17.1569 48.5701 17.16C47.9995 17.1787 47.431 17.08 46.9001 16.87C46.5046 16.692 46.1606 16.4168 45.9001 16.07C45.6395 15.7287 45.4615 15.3317 45.3801 14.91C45.2859 14.446 45.239 13.9736 45.2401 13.5V8.66003H43.3701ZM52.2101 6.60003H54.7901V16.92H52.2101V6.60003ZM51.8501 3.09003C51.8491 2.88815 51.8893 2.6882 51.9684 2.50247C52.0476 2.31674 52.1638 2.14916 52.3101 2.01003C52.4633 1.85737 52.6461 1.73778 52.8474 1.65865C53.0486 1.57953 53.264 1.54256 53.4801 1.55003C53.9192 1.53444 54.3468 1.69253 54.6701 1.99003C54.8245 2.12972 54.948 2.30023 55.0324 2.49055C55.1169 2.68088 55.1606 2.8868 55.1606 3.09503C55.1606 3.30326 55.1169 3.50918 55.0324 3.69951C54.948 3.88984 54.8245 4.06034 54.6701 4.20003C54.344 4.49298 53.9183 4.65037 53.4801 4.64003C53.264 4.6475 53.0486 4.61053 52.8474 4.53141C52.6461 4.45229 52.4633 4.33269 52.3101 4.18003C52.1626 4.03975 52.0456 3.87054 51.9665 3.68299C51.8873 3.49544 51.8477 3.29358 51.8501 3.09003ZM70.2501 6.30003C70.8456 6.28643 71.4367 6.406 71.9801 6.65003C72.441 6.87208 72.8474 7.19302 73.1701 7.59003C73.4792 7.98469 73.7069 8.43675 73.8401 8.92003C73.9886 9.4232 74.0627 9.9454 74.0601 10.47V16.92H71.4801V11.2C71.4832 10.8654 71.4598 10.531 71.4101 10.2C71.3764 9.88779 71.2812 9.58532 71.1301 9.31003C70.9888 9.04893 70.7863 8.82593 70.5401 8.66003C70.2426 8.46984 69.8925 8.37881 69.5401 8.40003C69.1891 8.39266 68.843 8.48266 68.5401 8.66003C68.2581 8.82557 68.0158 9.05084 67.8301 9.32003C67.6397 9.59982 67.5009 9.91138 67.4201 10.24C67.3376 10.5671 67.294 10.9027 67.2901 11.24V16.87H64.7101V10.68C64.7341 10.111 64.5727 9.54948 64.2501 9.08003C64.0787 8.8641 63.8567 8.69368 63.6039 8.58381C63.351 8.47394 63.0749 8.42799 62.8001 8.45003C62.4516 8.4415 62.1068 8.52424 61.8001 8.69003C61.5222 8.84887 61.2831 9.06747 61.1001 9.33003C60.9122 9.60029 60.7734 9.90157 60.6901 10.22C60.6014 10.5461 60.5543 10.8821 60.5501 11.22V16.9H57.9701V6.60003H60.4201V8.25003C60.5432 7.98665 60.7013 7.7411 60.8901 7.52003C61.0912 7.28333 61.3233 7.07479 61.5801 6.90003C61.8571 6.70425 62.1646 6.55558 62.4901 6.46003C62.8594 6.34755 63.2441 6.29356 63.6301 6.30003C64.3068 6.26498 64.978 6.43781 65.5536 6.79532C66.1292 7.15283 66.5816 7.67791 66.8501 8.30003C67.1715 7.70147 67.6482 7.20057 68.2301 6.85003C68.8416 6.51148 69.5312 6.33909 70.2301 6.35003L70.2501 6.30003ZM84.3401 10.73C84.3449 10.3915 84.2976 10.0542 84.2001 9.73003C84.1103 9.43884 83.9604 9.16972 83.7601 8.94003C83.5491 8.69998 83.2856 8.51177 82.9901 8.39003C82.6492 8.24379 82.281 8.17219 81.9101 8.18003C81.1795 8.15569 80.4661 8.40536 79.9101 8.88003C79.6468 9.10343 79.4319 9.37838 79.2789 9.68795C79.1258 9.99752 79.0378 10.3351 79.0201 10.68L84.3401 10.73ZM86.9201 11.89V12.58H79.0701C79.0958 12.93 79.1946 13.2706 79.3601 13.58C79.5195 13.8857 79.7409 14.1547 80.0101 14.37C80.2858 14.601 80.6008 14.7805 80.9401 14.9C81.2822 15.028 81.6448 15.0924 82.0101 15.09C82.5773 15.1108 83.1408 14.9906 83.6501 14.74C84.0912 14.5029 84.4659 14.1591 84.7401 13.74L86.4601 15.12C85.9503 15.8137 85.2754 16.3691 84.4965 16.7358C83.7177 17.1026 82.8596 17.269 82.0001 17.22C81.2462 17.2317 80.4968 17.1028 79.7901 16.84C79.1419 16.607 78.5468 16.2466 78.0401 15.78C77.5312 15.3111 77.1347 14.7334 76.8801 14.09C76.5889 13.3693 76.446 12.5972 76.4601 11.82C76.4498 11.0464 76.5925 10.2783 76.8801 9.56003C77.1335 8.90846 77.5208 8.31728 78.0168 7.82465C78.5129 7.33203 79.1068 6.9489 79.7601 6.70003C81.0983 6.20018 82.5719 6.20018 83.9101 6.70003C84.5084 6.93274 85.0479 7.29469 85.4901 7.76003C85.9416 8.26362 86.2823 8.85641 86.4901 9.50003C86.7565 10.2854 86.8851 11.1109 86.8701 11.94L86.9201 11.89ZM87.9301 8.66003V6.60003H89.7301V3.60003H92.2701V6.60003H94.8501V8.66003H92.2701V13.46C92.2536 13.8552 92.3397 14.248 92.5201 14.6C92.6801 14.9 93.0501 15.05 93.6301 15.05C93.8132 15.0635 93.997 15.0635 94.1801 15.05C94.3668 15.0175 94.5484 14.9604 94.7201 14.88L94.8101 16.88C94.5433 16.9712 94.2689 17.0381 93.9901 17.08C93.6927 17.1301 93.3917 17.1569 93.0901 17.16C92.5161 17.1795 91.9443 17.0808 91.4101 16.87C91.0146 16.692 90.6706 16.4168 90.4101 16.07C90.1575 15.724 89.9803 15.3288 89.8901 14.91C89.7959 14.446 89.749 13.9736 89.7501 13.5V8.66003H87.9301ZM98.7401 11.72C98.7397 12.1276 98.8038 12.5326 98.9301 12.92C99.0446 13.3092 99.2275 13.6749 99.4701 14C99.7247 14.3171 100.041 14.579 100.4 14.77C100.816 14.9674 101.27 15.0698 101.73 15.0698C102.19 15.0698 102.645 14.9674 103.06 14.77C103.426 14.5847 103.746 14.322 104 14C104.246 13.6754 104.432 13.3097 104.55 12.92C104.79 12.138 104.79 11.302 104.55 10.52C104.432 10.1365 104.246 9.77745 104 9.46003C103.754 9.13706 103.436 8.87667 103.07 8.70003C102.476 8.39336 101.794 8.3015 101.14 8.44C100.485 8.5785 99.8991 8.93885 99.4801 9.46003C99.2378 9.77797 99.0548 10.1371 98.9401 10.52C98.8138 10.9075 98.7497 11.3125 98.7501 11.72H98.7401ZM96.1301 11.72C96.1214 10.9543 96.2712 10.195 96.5701 9.49003C96.8449 8.84422 97.25 8.26208 97.7601 7.78003C98.2774 7.30009 98.8863 6.92937 99.5501 6.69003C100.25 6.42821 100.992 6.29606 101.74 6.30003C102.488 6.29425 103.23 6.42646 103.93 6.69003C104.595 6.9271 105.204 7.29808 105.72 7.78003C106.23 8.26208 106.635 8.84422 106.91 9.49003C107.497 10.9188 107.497 12.5213 106.91 13.95C106.636 14.6019 106.231 15.1907 105.72 15.68C105.204 16.1711 104.595 16.5551 103.93 16.81C103.234 17.0897 102.49 17.229 101.74 17.22C100.99 17.2272 100.246 17.0879 99.5501 16.81C98.886 16.5526 98.2781 16.1688 97.7601 15.68C97.2514 15.2062 96.8433 14.6349 96.5601 14C96.262 13.2948 96.1122 12.5357 96.1201 11.77L96.1301 11.72ZM108.35 8.66003V6.60003H110.16V3.60003H112.7V6.60003H115.28V8.66003H112.7V13.46C112.686 13.8539 112.768 14.2454 112.94 14.6C113.113 14.9 113.483 15.05 114.05 15.05C114.237 15.0636 114.424 15.0636 114.61 15.05C114.797 15.0175 114.978 14.9604 115.15 14.88L115.24 16.88C114.973 16.97 114.699 17.0369 114.42 17.08C114.123 17.1297 113.822 17.1565 113.52 17.16C112.946 17.1795 112.374 17.0808 111.84 16.87C111.445 16.692 111.101 16.4168 110.84 16.07C110.584 15.7262 110.406 15.3302 110.32 14.91C110.226 14.446 110.179 13.9736 110.18 13.5V8.66003H108.35ZM122.89 6.30003C123.486 6.28643 124.077 6.406 124.62 6.65003C125.08 6.86957 125.483 7.19105 125.8 7.59003C126.116 7.98174 126.348 8.43456 126.48 8.92003C126.629 9.4232 126.703 9.9454 126.7 10.47V16.92H124.12V11.24C124.116 10.9289 124.093 10.6183 124.05 10.31C124.017 10.0023 123.925 9.70367 123.78 9.43003C123.649 9.16247 123.449 8.93468 123.2 8.77003C122.901 8.58411 122.552 8.49345 122.2 8.51003C121.829 8.50056 121.462 8.58301 121.13 8.75003C120.836 8.90606 120.578 9.12044 120.37 9.38003C120.169 9.65173 120.017 9.95625 119.92 10.28C119.821 10.6041 119.77 10.9411 119.77 11.28V16.91H117.19V0.660034H119.77V8.00003C119.879 7.7632 120.028 7.54676 120.21 7.36003C120.411 7.15066 120.636 6.96602 120.88 6.81003C121.156 6.63508 121.456 6.5004 121.77 6.41003C122.117 6.30634 122.478 6.25577 122.84 6.26003L122.89 6.30003ZM129.75 6.60003H132.33V16.92H129.75V6.60003ZM129.38 3.09003C129.381 2.88752 129.423 2.68731 129.504 2.50162C129.585 2.31593 129.702 2.14866 129.85 2.01003C130.003 1.85688 130.186 1.73696 130.387 1.65781C130.588 1.57865 130.804 1.54196 131.02 1.55003C131.459 1.53444 131.887 1.69253 132.21 1.99003C132.365 2.12972 132.488 2.30023 132.572 2.49055C132.657 2.68088 132.701 2.8868 132.701 3.09503C132.701 3.30326 132.657 3.50918 132.572 3.69951C132.488 3.88984 132.365 4.06034 132.21 4.20003C131.884 4.49298 131.458 4.65037 131.02 4.64003C130.804 4.6481 130.588 4.61141 130.387 4.53225C130.186 4.45309 130.003 4.33318 129.85 4.18003C129.701 4.04025 129.583 3.87136 129.502 3.68385C129.421 3.49635 129.38 3.29422 129.38 3.09003ZM135.47 6.60003H137.92V8.25003C138.209 7.64575 138.665 7.13656 139.234 6.78229C139.802 6.42801 140.46 6.24337 141.13 6.25003C141.726 6.23642 142.317 6.356 142.86 6.60003C143.318 6.82219 143.721 7.14325 144.04 7.54003C144.356 7.93175 144.588 8.38456 144.72 8.87003C144.86 9.3747 144.931 9.8962 144.93 10.42V16.87H142.35V11.2C142.351 10.8658 142.331 10.5318 142.29 10.2C142.252 9.88881 142.157 9.58721 142.01 9.31003C141.869 9.04893 141.666 8.82593 141.42 8.66003C141.122 8.4711 140.772 8.38018 140.42 8.40003C140.068 8.39054 139.72 8.46549 139.403 8.61861C139.086 8.77172 138.811 8.99853 138.6 9.28003C138.405 9.5502 138.256 9.85098 138.16 10.17C138.063 10.4946 138.013 10.8313 138.01 11.17V16.85H135.43L135.47 6.60003ZM148.03 0.660034H150.61V10.94H150.67L154.58 6.60003H157.9L153.42 11.27L158.18 16.92H154.76L150.67 11.63H150.61V16.92H148.03V0.660034ZM159.19 15.42C159.188 15.1981 159.231 14.9781 159.317 14.7734C159.403 14.5688 159.53 14.3839 159.69 14.23C159.85 14.0701 160.04 13.9441 160.25 13.8599C160.46 13.7757 160.684 13.7349 160.91 13.74C161.356 13.7363 161.786 13.9047 162.11 14.21C162.276 14.3535 162.409 14.5318 162.499 14.7322C162.589 14.9327 162.634 15.1504 162.63 15.37C162.633 15.593 162.589 15.814 162.501 16.0189C162.413 16.2238 162.283 16.4082 162.12 16.56C161.961 16.7179 161.772 16.8425 161.564 16.9266C161.357 17.0107 161.134 17.0527 160.91 17.05C160.684 17.0525 160.459 17.0082 160.25 16.92C160.05 16.8373 159.864 16.7224 159.7 16.58C159.546 16.4307 159.421 16.2545 159.33 16.06C159.233 15.8609 159.185 15.6415 159.19 15.42ZM172.3 9.46003C172.069 9.14465 171.758 8.8962 171.4 8.74003C171.022 8.54896 170.604 8.44961 170.18 8.45003C169.745 8.43675 169.315 8.53669 168.93 8.74003C168.58 8.9233 168.276 9.18307 168.04 9.50003C167.797 9.81964 167.617 10.1828 167.51 10.57C167.277 11.3462 167.277 12.1739 167.51 12.95C167.624 13.3383 167.811 13.7013 168.06 14.02C168.306 14.3354 168.616 14.5946 168.97 14.78C169.367 14.9786 169.806 15.0781 170.25 15.07C170.665 15.0668 171.075 14.9854 171.46 14.83C171.851 14.7017 172.197 14.4661 172.46 14.15L174.08 15.78C173.62 16.2575 173.055 16.6205 172.43 16.84C171.74 17.1003 171.007 17.2292 170.27 17.22C169.535 17.2242 168.804 17.1025 168.11 16.86C167.448 16.6217 166.84 16.2547 166.32 15.78C165.807 15.2947 165.398 14.7093 165.12 14.06C164.817 13.3317 164.667 12.5488 164.68 11.76C164.671 10.9846 164.821 10.2155 165.12 9.50003C165.395 8.8512 165.8 8.26575 166.31 7.78003C166.822 7.30518 167.419 6.9319 168.07 6.68003C168.754 6.42414 169.48 6.29537 170.21 6.30003C170.965 6.29765 171.712 6.44376 172.41 6.73003C173.064 6.97499 173.645 7.38084 174.1 7.91003L172.3 9.46003ZM177.77 11.72C177.771 12.1267 177.832 12.531 177.95 12.92C178.064 13.3113 178.251 13.6777 178.5 14C178.75 14.3182 179.063 14.5805 179.42 14.77C179.837 14.9676 180.293 15.0701 180.755 15.0701C181.217 15.0701 181.673 14.9676 182.09 14.77C182.444 14.5794 182.754 14.3171 183 14C183.25 13.6777 183.436 13.3113 183.55 12.92C183.79 12.138 183.79 11.302 183.55 10.52C183.436 10.1349 183.249 9.77506 183 9.46003C182.756 9.13955 182.441 8.87952 182.08 8.70003C181.661 8.50906 181.206 8.41025 180.745 8.41025C180.284 8.41025 179.829 8.50906 179.41 8.70003C179.049 8.87952 178.734 9.13955 178.49 9.46003C178.241 9.77506 178.054 10.1349 177.94 10.52C177.822 10.9091 177.761 11.3134 177.76 11.72H177.77ZM175.13 11.72C175.121 10.9543 175.271 10.195 175.57 9.49003C175.852 8.84566 176.26 8.26424 176.77 7.78003C177.282 7.2981 177.888 6.92703 178.55 6.69003C179.967 6.16986 181.523 6.16986 182.94 6.69003C183.606 6.92568 184.215 7.29592 184.732 7.77766C185.248 8.25939 185.659 8.8423 185.94 9.49003C186.527 10.9188 186.527 12.5213 185.94 13.95C185.662 14.6024 185.254 15.191 184.74 15.68C184.239 16.1664 183.648 16.5503 183 16.81C181.588 17.3568 180.022 17.3568 178.61 16.81C177.944 16.5583 177.335 16.1755 176.82 15.6842C176.305 15.1929 175.893 14.6032 175.61 13.95C175.312 13.2448 175.162 12.4857 175.17 11.72H175.13ZM188.13 15.42C188.128 15.1971 188.172 14.9761 188.259 14.7711C188.347 14.5662 188.477 14.3819 188.64 14.23C188.798 14.0703 188.987 13.9445 189.195 13.8603C189.403 13.776 189.626 13.7351 189.85 13.74C190.296 13.7363 190.726 13.9047 191.05 14.21C191.216 14.3535 191.349 14.5318 191.439 14.7322C191.529 14.9327 191.574 15.1504 191.57 15.37C191.572 15.592 191.529 15.812 191.443 16.0166C191.357 16.2213 191.23 16.4062 191.07 16.56C190.744 16.8775 190.305 17.0536 189.85 17.05C189.624 17.0525 189.399 17.0082 189.19 16.92C188.993 16.8363 188.811 16.7215 188.65 16.58C188.49 16.4339 188.361 16.257 188.27 16.06C188.178 15.8593 188.13 15.641 188.13 15.42ZM203.61 16.92H201.16V15.26C200.897 15.8205 200.481 16.2954 199.96 16.63C199.371 17.0295 198.672 17.2357 197.96 17.22C197.365 17.2336 196.774 17.1141 196.23 16.87C195.772 16.6479 195.369 16.3268 195.05 15.93C194.74 15.5347 194.509 15.083 194.37 14.6C194.23 14.0954 194.159 13.5739 194.16 13.05V6.60003H196.74V12.32C196.739 12.6543 196.759 12.9883 196.8 13.32C196.845 13.6299 196.939 13.9304 197.08 14.21C197.224 14.4691 197.426 14.6916 197.67 14.86C197.97 15.0442 198.318 15.1348 198.67 15.12C199.042 15.1285 199.41 15.0425 199.74 14.87C200.036 14.7218 200.293 14.506 200.49 14.24C200.685 13.9699 200.834 13.6691 200.93 13.35C201.027 13.0254 201.077 12.6888 201.08 12.35V6.60003H203.66L203.61 16.92ZM206.75 0.660034H209.33V10.94H209.4L213.31 6.60003H216.62L212.15 11.27L216.9 16.92H213.48L209.4 11.63H209.33V16.92H206.75V0.660034Z" fill="black"></path></svg> 